<svg width="14" height="6" viewBox="0 0 14 6" fill="none" xmlns="http://www.w3.org/2000/svg">
<path d="M2.35651 5.92935C2.74142 6.01436 3.13933 6.02277 3.5275 5.95413C3.91567 5.88549 4.28652 5.74113 4.61885 5.52929C4.95118 5.31745 5.2385 5.04227 5.4644 4.71948C5.69029 4.39669 5.85034 4.03262 5.93541 3.64802H9.31082V4.64739C9.31082 4.73232 9.32755 4.81642 9.36008 4.89488C9.39261 4.97335 9.44028 5.04464 9.50038 5.10469C9.56049 5.16475 9.63184 5.21238 9.71037 5.24488C9.7889 5.27738 9.87307 5.29412 9.95807 5.29412C10.0431 5.29412 10.1272 5.27738 10.2058 5.24488C10.2843 5.21238 10.3556 5.16475 10.4157 5.10469C10.4759 5.04464 10.5235 4.97335 10.5561 4.89488C10.5886 4.81642 10.6053 4.73232 10.6053 4.64739V4.11898H11.194V4.64739C11.194 4.81891 11.2621 4.98341 11.3835 5.10469C11.5049 5.22598 11.6695 5.29412 11.8412 5.29412C12.0129 5.29412 12.1775 5.22598 12.2989 5.10469C12.4203 4.98341 12.4885 4.81891 12.4885 4.64739V3.64686H13.2771C13.4488 3.64686 13.6134 3.57872 13.7348 3.45744C13.8562 3.33615 13.9244 3.17166 13.9244 3.00013C13.9244 2.82861 13.8562 2.66412 13.7348 2.54283C13.6134 2.42155 13.4488 2.35341 13.2771 2.35341H5.9331C5.81717 1.82816 5.56204 1.34372 5.19438 0.950841C4.82673 0.55796 4.3601 0.271099 3.84337 0.120298C3.32665 -0.0305037 2.77882 -0.0396982 2.25733 0.0936904C1.73583 0.227079 1.25984 0.498137 0.879193 0.878468C0.498548 1.2588 0.227283 1.73441 0.0937839 2.25548C-0.0397152 2.77654 -0.0305481 3.3239 0.120378 3.84019C0.271305 4.35649 0.558437 4.82272 0.951644 5.19007C1.34485 5.55742 1.82967 5.81236 2.35535 5.92819L2.35651 5.92935ZM0.392882 3.4424C0.334908 3.09974 0.345063 2.74903 0.422739 2.41029C0.500416 2.07154 0.644115 1.7514 0.845617 1.46814C1.04712 1.18489 1.30248 0.944065 1.59713 0.759418C1.89178 0.574772 2.21994 0.449925 2.56288 0.391998C2.90582 0.334071 3.25683 0.344201 3.59585 0.421813C3.93487 0.499425 4.25526 0.642988 4.53875 0.844323C4.82224 1.04566 5.06327 1.30081 5.24806 1.59522C5.43286 1.88963 5.55781 2.21753 5.61579 2.56018C5.6226 2.60127 5.64381 2.6386 5.67561 2.66553C5.7074 2.69246 5.74771 2.70724 5.78939 2.70723H13.2794C13.3575 2.70723 13.4323 2.73819 13.4875 2.79334C13.5427 2.84849 13.5737 2.9233 13.5737 3.00129C13.5737 3.07928 13.5427 3.15408 13.4875 3.20922C13.4323 3.26437 13.3575 3.29536 13.2794 3.29536H12.3137C12.2904 3.2952 12.2673 3.29967 12.2458 3.3085C12.2242 3.31734 12.2047 3.33038 12.1882 3.34684C12.1717 3.36329 12.1587 3.38285 12.1499 3.40438C12.141 3.42591 12.1365 3.44898 12.1367 3.47225V4.64739C12.1367 4.64739 12.1367 4.65429 12.1367 4.65773C12.136 4.69635 12.1277 4.73446 12.1123 4.76988C12.0969 4.80529 12.0746 4.83733 12.0468 4.86416C12.019 4.89098 11.9862 4.91207 11.9502 4.92622C11.9143 4.94038 11.8758 4.94731 11.8372 4.94663C11.7985 4.94595 11.7604 4.93767 11.7249 4.92226C11.6895 4.90686 11.6574 4.88462 11.6306 4.85683C11.6037 4.82904 11.5826 4.79626 11.5685 4.76032C11.5543 4.72438 11.5474 4.68601 11.548 4.64739V3.94208C11.5477 3.89537 11.529 3.85067 11.4958 3.81774C11.4626 3.78481 11.4178 3.76633 11.371 3.76633H10.4283C10.4051 3.76633 10.3821 3.77091 10.3607 3.77981C10.3393 3.78872 10.3198 3.80177 10.3035 3.81821C10.2871 3.83466 10.2742 3.85416 10.2654 3.87562C10.2567 3.89707 10.2522 3.92005 10.2524 3.94322V4.64853C10.2524 4.65542 10.2524 4.66117 10.2524 4.66692C10.25 4.74491 10.2166 4.81874 10.1597 4.87217C10.1027 4.92559 10.0269 4.95423 9.94887 4.9518C9.87082 4.94936 9.79692 4.91603 9.74345 4.85916C9.68998 4.80229 9.6613 4.72652 9.66374 4.64853V3.47225C9.66374 3.42533 9.64509 3.38035 9.61188 3.34717C9.57868 3.31399 9.53366 3.29536 9.4867 3.29536H5.78711C5.74532 3.29562 5.70496 3.31064 5.67319 3.33776C5.64142 3.36488 5.62029 3.40234 5.61351 3.44354C5.51474 4.06459 5.19749 4.63009 4.71881 5.03837C4.24013 5.44665 3.6314 5.67093 3.00204 5.67093C2.37267 5.67093 1.76394 5.44665 1.28527 5.03837C0.806588 4.63009 0.489372 4.06459 0.390602 3.44354L0.392882 3.4424Z" fill="black" fill-opacity="0.58"/>
<path d="M1.59772 4.26489C1.56613 4.29937 1.5495 4.34494 1.55144 4.39165C1.55338 4.43836 1.57373 4.4824 1.60807 4.51415C1.98343 4.86245 2.47526 5.05845 2.9875 5.06385C3.49973 5.06925 3.99559 4.88366 4.37822 4.54335C4.76086 4.20305 5.00281 3.73245 5.0568 3.22346C5.1108 2.71448 4.97297 2.20366 4.67024 1.79076C4.3675 1.37787 3.92158 1.09255 3.4196 0.990541C2.91762 0.888528 2.39561 0.977135 1.95551 1.23907C1.51541 1.501 1.18883 1.91746 1.03955 2.40708C0.890272 2.8967 0.929009 3.42434 1.14821 3.88695C1.17066 3.92511 1.20661 3.95349 1.24897 3.96646C1.29133 3.97943 1.337 3.97605 1.377 3.95701C1.41699 3.93797 1.44839 3.90464 1.46499 3.8636C1.48159 3.82256 1.4822 3.77679 1.46667 3.73533C1.28445 3.3538 1.25102 2.91811 1.37293 2.51328C1.49484 2.10846 1.76334 1.76354 2.12602 1.54583C2.4887 1.32811 2.91953 1.25321 3.33449 1.33575C3.74944 1.4183 4.11876 1.65236 4.37033 1.99226C4.6219 2.33217 4.73771 2.75353 4.69515 3.17414C4.65258 3.59475 4.45471 3.98444 4.14014 4.26715C3.82556 4.54986 3.41684 4.70533 2.99374 4.70321C2.57064 4.70109 2.16352 4.54153 1.8518 4.25568C1.81729 4.22412 1.77168 4.20751 1.72493 4.20945C1.67819 4.21138 1.63409 4.23172 1.60231 4.26603L1.59772 4.26489Z" fill="black" fill-opacity="0.58"/>
</svg>
