<svg width="16" height="16" viewBox="0 0 16 16" fill="none" xmlns="http://www.w3.org/2000/svg">
<path d="M8.00018 3.09333C9.50241 3.09333 10.5157 3.74222 11.0935 4.28444L13.3513 2.08C11.9646 0.791111 10.1602 0 8.00018 0C4.87129 0 2.16907 1.79556 0.853516 4.40889L3.44018 6.41778C4.08907 4.48889 5.88463 3.09333 8.00018 3.09333Z" fill="#227E74"/>
<path d="M15.68 8.17755C15.68 7.51977 15.6267 7.03977 15.5111 6.54199H8V9.51088H12.4089C12.32 10.2487 11.84 11.3598 10.7733 12.1064L13.2978 14.062C14.8089 12.6664 15.68 10.6131 15.68 8.17755Z" fill="#4285F4"/>
<path d="M3.44889 9.58251C3.28 9.08474 3.18222 8.5514 3.18222 8.00029C3.18222 7.44918 3.28 6.91585 3.44 6.41807L0.853333 4.40918C0.311111 5.49362 0 6.7114 0 8.00029C0 9.28918 0.311111 10.507 0.853333 11.5914L3.44889 9.58251Z" fill="#FBBC05"/>
<path d="M7.99972 15.9998C10.1597 15.9998 11.973 15.2887 13.2975 14.062L10.773 12.1065C10.0975 12.5776 9.19083 12.9065 7.99972 12.9065C5.88416 12.9065 4.0886 11.5109 3.44861 9.58203L0.861938 11.5909C2.17749 14.2043 4.87083 15.9998 7.99972 15.9998Z" fill="#34A853"/>
</svg>
