<svg width="20" height="15" viewBox="0 0 20 15" fill="none" xmlns="http://www.w3.org/2000/svg">
<path d="M12.357 5.13801C12.2789 5.05995 12.1729 5.01611 12.0625 5.01611C11.952 5.01611 11.846 5.05995 11.7679 5.13801C11.6898 5.21607 11.6459 5.32194 11.6459 5.43233C11.6459 5.54272 11.6898 5.64859 11.7679 5.72665C12 5.95855 12.1841 6.23387 12.3097 6.53687C12.4353 6.83987 12.5 7.16462 12.5 7.49258C12.5 7.82054 12.4353 8.14529 12.3097 8.44828C12.1841 8.75128 12 9.02658 11.7679 9.25849C11.5358 9.49039 11.2603 9.67435 10.957 9.79986C10.6538 9.92536 10.3288 9.98996 10.0005 9.98996C9.67229 9.98996 9.34727 9.92536 9.04403 9.79986C8.74078 9.67435 8.46525 9.49039 8.23315 9.25849C8.15503 9.18043 8.04908 9.13658 7.93859 9.13658C7.82811 9.13658 7.72214 9.18043 7.64401 9.25849C7.56589 9.33655 7.52201 9.44243 7.52201 9.55283C7.52201 9.66322 7.56589 9.76909 7.64401 9.84714C7.95347 10.1563 8.32086 10.4016 8.72519 10.569C9.12952 10.7363 9.56288 10.8224 10.0005 10.8224C10.4382 10.8224 10.8715 10.7363 11.2759 10.569C11.6802 10.4016 12.0476 10.1563 12.357 9.84714C12.6665 9.53794 12.912 9.17086 13.0794 8.76686C13.2469 8.36286 13.3331 7.92986 13.3331 7.49258C13.3331 7.05529 13.2469 6.62229 13.0794 6.21829C12.912 5.8143 12.6665 5.44722 12.357 5.13801Z" fill="black" fill-opacity="0.56"/>
<path d="M10.5813 4.21963C10.1016 4.12878 9.6077 4.14542 9.13524 4.26836C8.66278 4.3913 8.22352 4.61747 7.84912 4.93056C7.47472 5.24364 7.17452 5.63584 6.97016 6.07888C6.76581 6.52191 6.66239 7.00473 6.66738 7.49252C6.66958 7.68731 6.68926 7.88151 6.72617 8.07278C6.7433 8.16891 6.79363 8.25598 6.86839 8.31885C6.94315 8.38172 7.03761 8.41639 7.13532 8.41684C7.1599 8.41688 7.18442 8.41448 7.20852 8.40965C7.31652 8.39005 7.41244 8.32874 7.47554 8.239C7.53864 8.14925 7.56383 8.03828 7.54566 7.93011C7.51731 7.78673 7.50206 7.64106 7.50007 7.49492C7.49542 7.12876 7.5724 6.76616 7.72543 6.43342C7.87845 6.10068 8.10367 5.80613 8.38477 5.57117C8.66588 5.33621 8.99579 5.16673 9.3506 5.075C9.7054 4.98327 10.0762 4.9716 10.4361 5.04085C10.4907 5.05235 10.5471 5.05277 10.6018 5.04207C10.6566 5.03137 10.7087 5.00978 10.7549 4.97858C10.8012 4.94737 10.8407 4.90718 10.8711 4.86042C10.9015 4.81366 10.9222 4.76127 10.9319 4.70636C10.9417 4.65144 10.9402 4.59514 10.9278 4.54078C10.9153 4.48643 10.892 4.43514 10.8593 4.38996C10.8266 4.34477 10.7851 4.30663 10.7373 4.27778C10.6896 4.24893 10.6365 4.22997 10.5813 4.22202V4.21963Z" fill="black" fill-opacity="0.56"/>
<path d="M19.9004 7.2238C18.3473 5.46914 16.5009 3.99744 14.4435 2.87436C14.3454 2.82364 14.2311 2.81397 14.1257 2.84747C14.0204 2.88097 13.9328 2.9549 13.882 3.05299C13.8313 3.15108 13.8216 3.2653 13.8551 3.37052C13.8886 3.47574 13.9626 3.56334 14.0608 3.61406C15.9137 4.63067 17.5895 5.94039 19.0233 7.49234C18.0299 8.57131 14.1208 12.488 10.0005 12.488C8.54588 12.4747 7.11323 12.1316 5.81066 11.4845C5.71207 11.4427 5.60113 11.4404 5.5009 11.4782C5.40068 11.516 5.31888 11.5909 5.27253 11.6874C5.22617 11.7839 5.21884 11.8945 5.25202 11.9963C5.28521 12.098 5.35636 12.1831 5.4507 12.2338C6.86568 12.9359 8.42191 13.3073 10.0017 13.32C15.1358 13.32 19.7096 7.98867 19.9028 7.76089C19.966 7.68551 20.0004 7.59022 20 7.4919C19.9996 7.39359 19.9643 7.29861 19.9004 7.2238Z" fill="black" fill-opacity="0.56"/>
<path d="M12.7338 2.1432C11.8543 1.83648 10.9308 1.67452 9.99934 1.66365C4.86519 1.66365 0.291379 6.99497 0.0982039 7.22275C0.0389244 7.29291 0.00454318 7.3807 0.000419562 7.47243C-0.00370406 7.56416 0.0226617 7.65468 0.0754069 7.72987C1.13312 9.1462 2.4261 10.3708 3.89812 11.3504C3.94377 11.3808 3.99501 11.4018 4.04885 11.4122C4.1027 11.4226 4.15808 11.4222 4.21178 11.4111C4.26547 11.3999 4.31641 11.3782 4.36164 11.3472C4.40687 11.3162 4.44549 11.2766 4.47524 11.2305C4.50548 11.1849 4.52637 11.1337 4.5367 11.0799C4.54704 11.0261 4.54661 10.9708 4.53546 10.9172C4.52431 10.8636 4.50264 10.8128 4.47171 10.7676C4.44078 10.7224 4.40121 10.6837 4.35526 10.6539C3.07049 9.78596 1.92585 8.72717 0.960894 7.51407C1.92077 6.47347 5.85507 2.49566 10.0053 2.49566C10.8461 2.50683 11.6796 2.6538 12.4734 2.93085C12.5252 2.9492 12.5802 2.95697 12.635 2.9537C12.6899 2.95043 12.7435 2.93618 12.7927 2.91181C12.842 2.88743 12.8858 2.85342 12.9217 2.8118C12.9575 2.77018 12.9846 2.72178 13.0014 2.6695C13.0186 2.61739 13.0253 2.5624 13.0211 2.50769C13.017 2.45298 13.0021 2.39963 12.9772 2.35071C12.9523 2.30179 12.918 2.25827 12.8762 2.22266C12.8345 2.18705 12.786 2.16004 12.7338 2.1432Z" fill="black" fill-opacity="0.56"/>
<path d="M17.3772 0.122006C17.3385 0.0833283 17.2926 0.0526457 17.242 0.0317111C17.1915 0.0107766 17.1373 0 17.0826 0C17.0279 0 16.9737 0.0107766 16.9232 0.0317111C16.8726 0.0526457 16.8267 0.0833283 16.7881 0.122006L2.62509 14.2757C2.54697 14.3538 2.50308 14.4596 2.50308 14.57C2.50308 14.6804 2.54697 14.7863 2.62509 14.8644C2.70321 14.9424 2.80917 14.9863 2.91965 14.9863C3.03013 14.9863 3.1361 14.9424 3.21422 14.8644L17.3772 0.709444C17.455 0.631464 17.4987 0.525845 17.4987 0.415729C17.4987 0.305613 17.455 0.199986 17.3772 0.122006Z" fill="black" fill-opacity="0.56"/>
</svg>
