<svg width="340" height="342" viewBox="0 0 340 342" fill="none" xmlns="http://www.w3.org/2000/svg">
<path d="M14.6583 74.8927L148.425 74.8927V69.0244L14.6583 69.0244V74.8927Z" fill="#EBEBEB"/>
<path d="M140.92 74.901H135.051V94.3041H140.92V74.901Z" fill="#EBEBEB"/>
<path d="M140.92 74.901H135.051V80.8977H140.92V74.901Z" fill="#DBDBDB"/>
<path d="M28.0163 74.901H22.148V94.3041H28.0163V74.901Z" fill="#EBEBEB"/>
<path d="M28.0163 74.901H22.148V80.8977H28.0163V74.901Z" fill="#DBDBDB"/>
<path d="M123.451 69.0323V31.647H114.034V69.0323H123.451Z" fill="#C7C7C7"/>
<path d="M123.451 33.7587V29.6485H114.034V33.7587H123.451Z" fill="#DBDBDB"/>
<path d="M123.451 40.5424V39.0171H114.034V40.5424H123.451Z" fill="#DBDBDB"/>
<path d="M123.451 64.1274V60.0172H112.862V64.1274H123.451Z" fill="#DBDBDB"/>
<path d="M114.035 69.0328V25.418H107.452V69.0328H114.035Z" fill="#DBDBDB"/>
<path d="M112.75 46.2901V29.5201H108.8V46.2901H112.75Z" fill="#EBEBEB"/>
<path d="M65.2775 69.048L96.295 38.3858L91.6672 33.7043L60.6497 64.3666L65.2775 69.048Z" fill="#C7C7C7"/>
<path d="M71.61 60.9016L83.5363 49.1119L80.7596 46.303L68.8333 58.0927L71.61 60.9016Z" fill="#DBDBDB"/>
<path d="M107.459 69.0323V35.9097H96.2847V69.0323H107.459Z" fill="#A6A6A6"/>
<path d="M107.459 65.5327V62.442H96.2847V65.5327H107.459Z" fill="#C7C7C7"/>
<path d="M107.459 60.4106V59.2144H96.2847V60.4106H107.459Z" fill="#C7C7C7"/>
<path d="M131.174 69.0409V37.9092H123.459V69.0409H131.174Z" fill="#A6A6A6"/>
<path d="M131.174 65.7331V62.8351H123.459V65.7331H131.174Z" fill="#C7C7C7"/>
<path d="M131.174 47.2213V44.3233H123.459V47.2213L131.174 47.2213Z" fill="#C7C7C7"/>
<path d="M131.166 50.3359V49.212H123.451V50.3359H131.166Z" fill="#C7C7C7"/>
<path d="M41.7041 29.1503C48.2868 35.5725 49.3947 45.5751 48.0058 54.3093C48.0058 54.502 47.6607 54.4538 47.6607 54.2611C47.6607 52.2783 47.7249 50.3034 47.7168 48.3447C47.7168 48.2483 47.6526 48.1681 47.6125 48.0798C45.8386 46.911 44.3712 45.3335 43.3337 43.4798C42.2339 41.3204 41.8004 38.8799 40.9655 36.6161C40.8852 36.3994 41.118 36.4636 41.2625 36.576C45.2764 39.5302 46.5448 42.7092 47.6847 46.9559C47.6584 44.734 47.4246 42.5194 46.9863 40.341C46.2218 36.2349 44.332 32.4219 41.5274 29.3269C41.5124 29.3023 41.506 29.2734 41.5094 29.2447C41.5128 29.2161 41.5258 29.1894 41.5462 29.169C41.5666 29.1486 41.5932 29.1357 41.6219 29.1323C41.6505 29.1289 41.6795 29.1352 41.7041 29.1503Z" fill="#A6A6A6"/>
<path d="M40.4668 29.9053C39.3268 29.9053 38.6204 31.7517 37.7373 32.3136C37.6444 32.3891 37.5366 32.4441 37.421 32.475C37.3053 32.506 37.1845 32.5122 37.0663 32.4932C36.9481 32.4743 36.8352 32.4306 36.7351 32.3651C36.6349 32.2996 36.5497 32.2136 36.485 32.1129C35.61 30.8927 36.8141 29.3915 37.938 28.5486C37.1937 28.9658 36.4081 29.3048 35.5939 29.5601C35.4827 29.5992 35.3642 29.6134 35.2469 29.6015C35.1297 29.5897 35.0164 29.5522 34.9153 29.4916C34.8141 29.4311 34.7275 29.349 34.6617 29.2513C34.5958 29.1535 34.5523 29.0424 34.5342 28.9259C34.1489 27.2642 36.2361 26.5176 37.6731 26.5176C36.9747 26.0359 34.9838 24.7274 36.0675 24.1092C37.1513 23.4911 39.4793 25.3375 40.2339 25.9556C41.3578 26.8628 42.6904 28.2275 42.7466 29.6484C42.7868 31.27 41.3337 30.2505 40.4668 29.9053Z" fill="#DBDBDB"/>
<path d="M40.7882 30.1863C39.3432 29.52 36.5575 30.4753 36.3247 29.9213C35.8431 28.8055 38.0668 28.0429 39.2709 27.8903C38.1631 27.5933 36.0598 27.0875 36.108 26.052C36.1883 24.7515 39.3592 25.8673 40.9648 27.0956C42.9797 28.6449 42.9717 30.1461 42.6346 30.4432C42.177 30.8526 41.029 30.2906 40.7882 30.1863Z" fill="#EBEBEB"/>
<path d="M56.6999 28.5162C49.8763 34.7056 48.3912 44.6279 49.4749 53.4023C49.4749 53.603 49.8121 53.5628 49.8201 53.4023C49.8924 51.4194 49.9084 49.4446 49.9887 47.4858L50.1011 47.2209C51.9183 46.1263 53.444 44.6088 54.5485 42.7976C55.7366 40.6783 56.2584 38.2539 57.1816 36.0302C57.2699 35.8134 57.0371 35.8696 56.8845 35.974C52.7663 38.7757 51.3695 41.9065 50.0609 46.105C50.1704 43.886 50.4875 41.6821 51.0082 39.5223C51.9324 35.4438 53.9725 31.7026 56.9006 28.7169C56.9272 28.6903 56.9422 28.6542 56.9422 28.6166C56.9422 28.5789 56.9272 28.5428 56.9006 28.5162C56.874 28.4896 56.8379 28.4747 56.8002 28.4747C56.7626 28.4747 56.7265 28.4896 56.6999 28.5162Z" fill="#A6A6A6"/>
<path d="M57.9035 29.311C59.0354 29.3913 59.6776 31.2296 60.5366 31.7916C60.6266 31.8708 60.7323 31.93 60.8467 31.9655C60.9612 32.001 61.0819 32.0119 61.2009 31.9975C61.3199 31.9831 61.4345 31.9437 61.5372 31.8819C61.6399 31.8202 61.7284 31.7374 61.7969 31.6391C62.7201 30.4509 61.5721 28.9016 60.4804 28.0185C61.2065 28.4866 61.9785 28.8793 62.7843 29.1906C62.8941 29.234 63.012 29.2528 63.1298 29.2454C63.2476 29.2381 63.3623 29.2049 63.4658 29.1482C63.5693 29.0914 63.659 29.0126 63.7285 28.9172C63.798 28.8219 63.8457 28.7124 63.8681 28.5965C64.3096 26.9428 62.2625 26.124 60.8256 26.0357C61.532 25.5781 63.5711 24.3418 62.5435 23.6274C61.516 22.9129 59.1076 24.7432 58.3049 25.3453C57.1489 26.2123 55.7681 27.5208 55.6637 28.9337C55.5353 30.5874 57.0204 29.6241 57.9035 29.311Z" fill="#DBDBDB"/>
<path d="M57.5661 29.56C59.0432 28.9579 61.7807 30.0095 62.0376 29.4717C62.5594 28.3799 60.3678 27.5289 59.1797 27.3363C60.2956 27.0794 62.3908 26.678 62.3908 25.6103C62.3908 24.3098 59.1797 25.3053 57.5019 26.4773C55.4307 27.9464 55.3826 29.4395 55.7037 29.7526C56.1532 30.1942 57.3253 29.6804 57.5661 29.56Z" fill="#EBEBEB"/>
<path d="M49.7162 44.8686C49.2593 48.1796 48.5508 51.4511 47.5969 54.6545C47.5841 54.7173 47.5469 54.7724 47.4935 54.8078C47.44 54.8432 47.3747 54.8559 47.3119 54.8431C47.2491 54.8303 47.194 54.7931 47.1586 54.7397C47.1232 54.6863 47.1105 54.6209 47.1233 54.5581C47.5728 51.5397 48.3917 48.5775 48.8332 45.567C49.3263 42.5134 49.5039 39.4171 49.363 36.3271C49.074 31.2455 47.6932 25.8348 44.3778 21.8771C44.3055 21.7808 44.4581 21.6443 44.5303 21.7326C51.1773 29.4794 50.1497 38.9763 50.1497 39.8272C51.089 36.6161 52.0603 32.9474 55.6166 29.6801C55.7692 29.5356 55.8896 29.6079 55.8655 29.8487C55.2313 35.7892 53.5776 38.896 50.1257 42.075C49.9892 42.9982 49.8688 43.9374 49.7162 44.8686Z" fill="#A6A6A6"/>
<path d="M44.3128 22.7526C43.1166 22.2227 41.4709 23.74 40.2989 23.8443C40.1672 23.8759 40.0305 23.8798 39.8973 23.8558C39.7641 23.8319 39.6372 23.7806 39.5248 23.7051C39.4125 23.6297 39.3169 23.5318 39.2443 23.4176C39.1716 23.3034 39.1234 23.1753 39.1027 23.0416C38.8057 21.3397 40.8127 20.3763 42.4022 20.0713C41.3987 20.0071 40.4113 20.28 39.4239 20.0151C39.2879 19.9993 39.1569 19.9542 39.04 19.8828C38.9231 19.8115 38.8231 19.7157 38.7468 19.6021C38.6705 19.4884 38.6197 19.3595 38.598 19.2243C38.5763 19.0891 38.5842 18.9508 38.6211 18.819C39.0626 16.9003 41.5994 17.2134 43.1086 17.8637C42.6269 17.0609 41.2221 14.6525 42.643 14.5161C44.0639 14.3796 45.5651 17.5024 46.0387 18.53C46.7452 20.0392 47.4516 22.1184 46.7853 23.6196C46.0387 25.3375 45.0433 23.5473 44.3128 22.7526Z" fill="#DBDBDB"/>
<path d="M44.5136 23.202C43.3415 21.7971 39.9779 21.3797 40.01 20.6893C40.0742 19.2924 42.7635 19.6136 44.0881 20.0631C43.0927 19.1961 41.1339 17.6548 41.736 16.563C42.4745 15.2545 45.1959 18.008 46.2476 20.0952C47.5641 22.7203 46.7935 24.2616 46.2957 24.4061C45.6134 24.5988 44.7062 23.4428 44.5136 23.202Z" fill="#EBEBEB"/>
<path d="M54.09 46.6506L57.0201 69.032H39.1905C39.5598 67.0492 42.8752 46.6265 42.8752 46.6265L54.09 46.6506Z" fill="#DBDBDB"/>
<path d="M266.714 52.3826C267.2 50.3235 268.084 48.3791 269.315 46.6588C270.487 45.0533 272.377 43.8866 274.983 43.1587C275.786 42.9179 276.725 42.661 277.857 42.356C279.022 42.0729 280.16 41.6916 281.261 41.216C282.38 40.7381 283.414 40.079 284.319 39.2653C285.237 38.4368 285.879 37.3469 286.158 36.1425C286.397 35.2763 286.428 34.3655 286.246 33.4853C286.077 32.6944 285.749 31.9461 285.283 31.2857C284.8 30.6196 284.188 30.0572 283.484 29.6319C282.764 29.186 281.979 28.8555 281.156 28.6526C280.212 28.41 279.229 28.3636 278.266 28.5161C277.391 28.6462 276.538 28.8946 275.73 29.2546C274.942 29.6078 274.198 30.0524 273.514 30.5792C272.883 31.0582 272.28 31.5728 271.708 32.1206L266.811 26.5011C267.722 25.2695 268.835 24.2002 270.102 23.3382C271.336 22.5002 272.689 21.8534 274.116 21.4195C275.57 20.9847 277.078 20.755 278.595 20.7372C280.163 20.7148 281.726 20.9011 283.244 21.2911C284.973 21.7277 286.63 22.4118 288.165 23.3221C289.698 24.2261 291.035 25.4269 292.098 26.8543C293.194 28.345 293.95 30.0576 294.314 31.8717C294.722 34.0046 294.629 36.2033 294.041 38.2939C293.736 39.6018 293.238 40.8572 292.564 42.0188C291.965 43.0192 291.212 43.9187 290.332 44.684C289.461 45.4321 288.498 46.066 287.466 46.5705C286.347 47.1099 285.191 47.5686 284.006 47.9433C282.954 48.2644 281.919 48.5534 280.883 48.8263C279.885 49.0842 278.912 49.4335 277.977 49.8699C277.084 50.2753 276.268 50.8352 275.569 51.5237C274.851 52.2806 274.351 53.2184 274.124 54.237L266.714 52.3826ZM262.853 68.3017L265.221 58.8931L272.791 60.7957L270.423 70.2043L262.853 68.3017Z" fill="#EBEBEB"/>
<path d="M27.8638 226.866C28.2084 228.387 28.252 229.961 27.9923 231.498C27.6091 233.134 26.6944 234.596 25.3913 235.657C24.9417 236.066 24.3878 236.548 23.7295 237.094C23.048 237.656 22.4168 238.276 21.843 238.948C21.2515 239.625 20.7767 240.395 20.4382 241.228C20.0984 242.074 20.0256 243.004 20.2294 243.893C20.3544 244.547 20.6292 245.162 21.0322 245.691C21.4007 246.16 21.8593 246.55 22.3809 246.839C22.9171 247.12 23.5038 247.292 24.1068 247.345C24.7289 247.41 25.3572 247.377 25.9693 247.249C26.6665 247.114 27.3297 246.841 27.92 246.446C28.4599 246.079 28.9462 245.638 29.365 245.137C29.7729 244.644 30.123 244.105 30.4086 243.532C30.6753 243.012 30.9086 242.476 31.107 241.926L36.1645 244.046C35.9536 245.158 35.5574 246.227 34.9925 247.209C34.4434 248.168 33.7503 249.037 32.9374 249.786C32.1156 250.549 31.1883 251.189 30.1839 251.688C29.1518 252.207 28.056 252.587 26.9246 252.82C25.6375 253.091 24.318 253.175 23.007 253.069C21.6989 252.965 20.4245 252.602 19.2581 252.001C18.0479 251.363 16.9906 250.471 16.1594 249.384C15.2038 248.101 14.5581 246.615 14.2728 245.041C14.0498 244.076 13.974 243.083 14.048 242.095C14.1194 241.238 14.3281 240.397 14.6662 239.606C14.998 238.827 15.4327 238.095 15.9587 237.431C16.5226 236.706 17.1397 236.025 17.805 235.392C18.3991 234.846 18.9932 234.316 19.5952 233.786C20.1773 233.3 20.7146 232.763 21.2008 232.181C21.6343 231.619 21.9658 230.986 22.1802 230.31C22.4145 229.575 22.4423 228.789 22.2604 228.038L27.8638 226.866ZM25.2789 215.057L26.748 222.066L21.1285 223.246L19.6595 216.246L25.2789 215.057Z" fill="#EBEBEB"/>
<path d="M280.674 155.235C281.62 156.475 282.315 157.887 282.721 159.393C283.045 161.046 282.81 162.76 282.055 164.266C281.822 164.828 281.517 165.494 281.148 166.265C280.758 167.059 280.441 167.886 280.201 168.737C279.944 169.599 279.833 170.497 279.872 171.394C279.918 172.305 280.237 173.18 280.787 173.907C281.17 174.448 281.677 174.891 282.264 175.2C282.795 175.474 283.377 175.638 283.974 175.681C284.579 175.72 285.185 175.636 285.756 175.432C286.345 175.228 286.9 174.935 287.402 174.565C287.981 174.155 288.47 173.631 288.839 173.024C289.19 172.466 289.461 171.86 289.641 171.226C289.803 170.609 289.897 169.977 289.922 169.339C289.956 168.759 289.956 168.178 289.922 167.597L295.397 167.421C295.673 168.517 295.76 169.651 295.654 170.776C295.55 171.881 295.279 172.964 294.851 173.987C294.416 175.021 293.838 175.989 293.133 176.861C292.413 177.77 291.576 178.579 290.645 179.27C289.585 180.053 288.417 180.677 287.177 181.124C285.944 181.572 284.634 181.771 283.324 181.71C281.96 181.633 280.63 181.263 279.422 180.626C278.02 179.854 276.814 178.769 275.898 177.455C275.294 176.671 274.813 175.799 274.469 174.87C274.176 174.061 274.016 173.21 273.995 172.35C273.972 171.502 274.061 170.654 274.26 169.829C274.479 168.938 274.76 168.063 275.103 167.212C275.416 166.465 275.729 165.735 276.066 165.02C276.402 164.333 276.67 163.615 276.869 162.877C277.051 162.183 277.11 161.464 277.046 160.75C276.951 159.984 276.648 159.26 276.171 158.654L280.674 155.235ZM273.449 145.601L277.696 151.357L273.064 154.777L268.817 149.021L273.449 145.601Z" fill="#EBEBEB"/>
<path d="M307.038 140.752C307.011 139.036 307.322 137.331 307.953 135.735C308.738 134.059 310.06 132.694 311.71 131.858C312.28 131.512 312.987 131.127 313.822 130.686C314.668 130.235 315.474 129.711 316.23 129.12C317.021 128.529 317.706 127.807 318.253 126.985C318.803 126.147 319.083 125.161 319.056 124.159C319.07 123.467 318.928 122.78 318.642 122.149C318.356 121.519 317.932 120.96 317.402 120.514C316.894 120.087 316.304 119.767 315.668 119.575C315.014 119.368 314.331 119.263 313.645 119.262C312.865 119.253 312.09 119.397 311.365 119.688C310.702 119.965 310.078 120.33 309.511 120.771C308.959 121.206 308.461 121.705 308.026 122.256C307.625 122.755 307.255 123.278 306.918 123.822L301.957 120.402C302.433 119.253 303.098 118.193 303.924 117.263C304.735 116.361 305.677 115.584 306.717 114.959C307.777 114.327 308.92 113.846 310.113 113.53C311.339 113.207 312.602 113.045 313.87 113.049C315.319 113.049 316.76 113.26 318.149 113.675C319.532 114.082 320.821 114.761 321.938 115.674C323.091 116.63 324.025 117.824 324.675 119.174C325.435 120.77 325.816 122.52 325.791 124.287C325.806 125.373 325.663 126.455 325.366 127.499C325.089 128.402 324.675 129.258 324.137 130.035C323.604 130.797 322.973 131.486 322.259 132.082C321.484 132.729 320.663 133.319 319.802 133.848C319.048 134.306 318.285 134.748 317.523 135.165C316.789 135.567 316.093 136.034 315.443 136.562C314.832 137.056 314.313 137.653 313.91 138.328C313.492 139.06 313.284 139.894 313.308 140.736L307.038 140.752ZM307.151 154.03V146.163H313.477V154.03H307.151Z" fill="#EBEBEB"/>
<path d="M109.138 186.358C108.756 184.685 108.707 182.953 108.993 181.26C109.414 179.46 110.426 177.851 111.867 176.693C112.357 176.235 112.959 175.713 113.689 175.087C114.433 174.463 115.125 173.781 115.76 173.048C116.404 172.299 116.922 171.451 117.294 170.535C117.667 169.605 117.745 168.582 117.519 167.605C117.382 166.887 117.08 166.211 116.635 165.63C116.224 165.133 115.716 164.723 115.142 164.426C114.555 164.113 113.911 163.921 113.248 163.864C112.566 163.801 111.879 163.839 111.209 163.977C110.443 164.131 109.715 164.434 109.065 164.868C108.468 165.275 107.928 165.761 107.46 166.313C107.015 166.854 106.632 167.444 106.32 168.071C106.016 168.642 105.748 169.232 105.517 169.837L100.05 167.493C100.279 166.271 100.71 165.096 101.327 164.017C101.929 162.962 102.69 162.007 103.582 161.183C104.483 160.342 105.5 159.634 106.601 159.08C107.737 158.513 108.94 158.092 110.181 157.827C111.598 157.532 113.049 157.44 114.492 157.554C115.928 157.667 117.328 158.062 118.61 158.719C119.941 159.414 121.103 160.392 122.014 161.584C123.686 163.916 124.513 166.748 124.358 169.612C124.277 170.552 124.05 171.473 123.684 172.342C123.321 173.203 122.846 174.013 122.271 174.75C121.645 175.542 120.967 176.29 120.24 176.99C119.59 177.592 118.939 178.178 118.281 178.74C117.646 179.286 117.06 179.888 116.531 180.538C116.038 181.151 115.653 181.843 115.391 182.585C115.141 183.395 115.113 184.257 115.311 185.082L109.138 186.358ZM112.003 199.323L110.398 191.632L116.587 190.316L118.193 198.014L112.003 199.323Z" fill="#EBEBEB"/>
<path d="M302.182 248.63L312.907 248.405L318.189 248.317C319.947 248.277 321.689 248.317 323.439 248.269L323.086 248.63L323.038 239.647L323.439 240.048L312.787 240C309.246 240 305.706 239.904 302.158 239.864L302.383 239.647C302.383 241.116 302.31 242.593 302.27 244.094L302.182 248.63ZM302.182 248.63L302.07 244.183C302.07 242.689 301.981 241.172 301.965 239.647V239.43H302.182C305.73 239.39 309.27 239.302 312.811 239.294L323.439 239.245H323.841V239.647V248.63V248.991H323.48C321.689 248.991 319.891 248.991 318.109 248.943L312.763 248.855L302.182 248.63Z" fill="#EBEBEB"/>
<path d="M314.037 259.957L324.762 259.732L330.044 259.644C331.803 259.604 333.545 259.644 335.295 259.596L334.941 259.957L334.901 250.974L335.295 251.375L324.666 251.327C321.126 251.327 317.585 251.231 314.037 251.191L314.262 250.974C314.262 252.443 314.19 253.92 314.157 255.421L314.037 259.957ZM314.037 259.957L313.925 255.51C313.925 254.017 313.836 252.499 313.82 250.974V250.757H314.037C317.585 250.717 321.126 250.629 324.666 250.621L335.295 250.573H335.704V250.974L335.656 259.957V260.318H335.262C333.472 260.318 331.682 260.318 329.892 260.27L324.545 260.182L314.037 259.957Z" fill="#EBEBEB"/>
<path d="M290.308 259.957L301.033 259.732L306.315 259.644C308.065 259.604 309.815 259.644 311.565 259.596L311.212 259.957L311.18 250.974L311.581 251.375L300.953 251.327C297.412 251.327 293.864 251.231 290.324 251.191L290.541 250.974C290.541 252.443 290.476 253.92 290.436 255.421L290.308 259.957ZM290.308 259.957L290.195 255.51C290.155 254.017 290.107 252.499 290.091 250.974V250.757H290.308C293.848 250.717 297.396 250.629 300.937 250.621L311.565 250.573H311.967V250.974L311.983 259.957V260.318H311.63C309.839 260.318 308.041 260.318 306.259 260.27L300.912 260.182L290.308 259.957Z" fill="#EBEBEB"/>
<path d="M16.3452 259.957L27.0622 259.732L32.3445 259.644C34.1026 259.604 35.8526 259.644 37.6027 259.596L37.2414 259.957L37.2013 250.974L37.6027 251.375L26.998 251.327C23.4497 251.327 19.9095 251.231 16.3692 251.191L16.586 250.974C16.586 252.443 16.5137 253.92 16.4816 255.421L16.3452 259.957ZM16.3452 259.957L16.2247 255.51C16.2247 254.017 16.1364 252.499 16.1204 250.974V250.757H16.3452C19.8854 250.717 23.4256 250.629 26.9739 250.621L37.6027 250.573H38.0041V250.974L37.9559 259.957V260.318H37.6027C35.8125 260.318 34.0143 260.318 32.2241 260.27L26.8776 260.182L16.3452 259.957Z" fill="#EBEBEB"/>
<path d="M16.3452 10.1088L27.0622 9.88407L32.3445 9.78774C34.1026 9.78774 35.8526 9.78774 37.6027 9.78774L37.2414 10.149L37.2013 1.16592L37.6027 1.55928L26.998 1.46295C23.4497 1.46295 19.9095 1.37464 16.3692 1.33451L16.586 1.11776C16.586 2.58684 16.5137 4.06394 16.4816 5.55711L16.3452 10.1088ZM16.3452 10.1088L16.2247 5.66147C16.2247 4.16028 16.1364 2.64303 16.1204 1.12578V0.909035H16.3452C19.8854 0.909035 23.4256 0.780591 26.9739 0.780591L37.6027 0.732423H38.0041V1.14184L37.9559 10.1249V10.4781H37.6027C35.8125 10.4781 34.0143 10.4781 32.2241 10.438L26.8776 10.2935L16.3452 10.1088Z" fill="#EBEBEB"/>
<path d="M4.51946 21.436L15.2365 21.2112L20.5188 21.1149C22.2769 21.1149 24.0189 21.1149 25.777 21.1149L25.4157 21.4762V12.4931L25.8171 12.8864L15.1161 12.7981C11.5678 12.7981 8.02759 12.7018 4.51946 12.7018L4.73621 12.4851C4.73621 13.9541 4.66396 15.4312 4.63185 16.9244L4.51946 21.436ZM4.51946 21.436L4.39904 16.9886C4.39904 15.4874 4.31074 13.9702 4.29468 12.4529V12.2362H4.51946C8.0597 12.2362 11.5999 12.1078 15.1482 12.1078L25.777 12.0596H26.1784V12.469L26.1302 21.4521V21.8053H25.777C23.9788 21.8053 22.1886 21.8053 20.3984 21.8053L15.0519 21.709L4.51946 21.436Z" fill="#EBEBEB"/>
<path d="M314.037 10.1169L324.762 9.8921L330.044 9.80379C331.803 9.80379 333.545 9.80379 335.295 9.75563L334.941 10.1169L334.901 1.13381L335.295 1.5352L324.666 1.46295C321.126 1.46295 317.585 1.37464 314.037 1.33451L314.262 1.11776C314.262 2.58684 314.19 4.06394 314.157 5.55711L314.037 10.1169ZM314.037 10.1169L313.925 5.6695C313.925 4.16831 313.836 2.65909 313.82 1.13381V0.917061H314.037C317.585 0.876922 321.126 0.796645 324.666 0.788617L335.262 0.732423H335.672V1.13381L335.632 10.1169V10.4781H335.262C333.472 10.4781 331.682 10.4781 329.892 10.4781L324.545 10.3898L314.037 10.1169Z" fill="#EBEBEB"/>
<path d="M198.96 126.56L188.243 126.784L182.961 126.873C181.203 126.913 179.453 126.873 177.703 126.921L178.064 126.56L178.104 135.543L177.703 135.141L188.332 135.197C191.88 135.197 195.42 135.286 198.96 135.326L198.744 135.543C198.744 134.074 198.816 132.596 198.848 131.103L198.96 126.56ZM198.96 126.56L199.081 131.007C199.081 132.508 199.169 134.017 199.185 135.543V135.759H198.96C195.42 135.759 191.88 135.88 188.332 135.888L177.703 135.936H177.302V135.527L177.35 126.544V126.182H177.703C179.493 126.182 181.291 126.182 183.081 126.222L188.428 126.311L198.96 126.56Z" fill="#EBEBEB"/>
<path d="M187.103 115.232L176.386 115.457L171.103 115.545C169.345 115.545 167.595 115.545 165.845 115.593L166.206 115.232L166.247 124.215L165.845 123.814L176.474 123.87C180.014 123.87 183.562 123.958 187.103 123.999L186.886 124.215C186.886 122.746 186.95 121.269 186.99 119.776L187.103 115.232ZM187.103 115.232L187.215 119.68C187.255 121.181 187.311 122.69 187.319 124.215V124.432H187.095C183.554 124.472 180.006 124.552 176.466 124.56L165.837 124.609H165.436V124.207L165.484 115.224V114.863H165.877C167.668 114.863 169.466 114.863 171.256 114.903L176.602 114.991L187.103 115.232Z" fill="#EBEBEB"/>
<path d="M0 300.513L42.4749 300.32L84.9498 300.248L169.892 300.111L254.833 300.248L297.308 300.32L339.783 300.513L297.308 300.713L254.833 300.786L169.892 300.914L84.9498 300.786L42.4749 300.713L0 300.513Z" fill="#263238"/>
<path d="M169.892 342C249.87 342 314.705 335.689 314.705 327.903C314.705 320.118 249.87 313.807 169.892 313.807C89.9142 313.807 25.0793 320.118 25.0793 327.903C25.0793 335.689 89.9142 342 169.892 342Z" fill="#EBEBEB"/>
<path d="M311.982 212.184C308.931 209.197 304.989 205.585 300.325 206.877C295.942 208.09 294.264 212.874 293.478 216.864C292.466 222.01 291.679 227.196 290.861 232.374C290.042 237.552 289.255 242.81 288.508 248.068C288.08 251.022 287.663 253.979 287.256 256.939C287.047 258.416 286.841 259.893 286.638 261.37C286.437 262.823 286.196 264.276 286.116 265.737C286.116 266.203 286.823 266.267 286.919 265.825C287.489 263.361 287.722 260.792 288.083 258.295C288.444 255.799 288.813 253.254 289.175 250.741C289.905 245.74 290.668 240.747 291.414 235.745C292.161 230.744 292.948 225.759 293.751 220.765C294.425 216.527 294.746 211.269 298.495 208.475C299.514 207.779 300.693 207.353 301.922 207.238C303.151 207.123 304.389 207.322 305.519 207.817C307.984 208.764 309.959 210.53 311.893 212.28C311.982 212.336 312.062 212.248 311.982 212.184Z" fill="#263238"/>
<path d="M307.831 209.133C307.831 209.133 301.594 206.893 298.519 211.437C295.445 215.98 299.121 227.556 327.5 234.083C326.669 225.213 324.363 216.544 320.676 208.434C314.591 195.164 303.745 200.19 307.831 209.133Z" fill="#227E74"/>
<path d="M325.871 232.189C325.442 231.395 324.965 230.628 324.442 229.893C323.968 229.162 323.487 228.432 323.005 227.709C322.644 227.164 322.266 226.618 321.897 226.104C321.897 225.975 321.897 225.839 321.945 225.703L322.042 224.964C322.114 224.434 322.194 223.896 322.266 223.358C322.339 222.821 322.435 222.307 322.539 221.753C322.604 221.185 322.728 220.625 322.909 220.083C322.909 219.995 322.796 219.955 322.788 220.083C322.727 220.405 322.641 220.722 322.531 221.03L322.339 221.745C322.202 222.283 322.074 222.821 321.953 223.35C321.833 223.88 321.745 224.354 321.656 224.852C321.616 225.1 321.584 225.341 321.552 225.582C321.046 224.86 320.524 224.145 319.994 223.447C318.485 221.464 316.896 219.553 315.242 217.683C315.242 217.683 315.242 217.683 315.242 217.635C315.395 214.656 315.322 211.702 315.981 208.804C315.981 208.724 315.884 208.676 315.86 208.756C315.112 211.521 314.755 214.377 314.801 217.241C314.214 216.583 313.612 215.925 313.01 215.274C311.622 213.789 310.217 212.32 308.78 210.891C308.724 210.835 308.627 210.891 308.683 210.98C311.092 213.557 313.347 216.238 315.563 218.967C313.83 218.939 312.096 219.003 310.369 219.16C308.451 219.296 306.54 219.545 304.629 219.81C304.541 219.81 304.565 219.947 304.629 219.939C306.529 219.659 308.442 219.487 310.361 219.425C312.216 219.345 314.054 219.425 315.908 219.425C317.107 220.902 318.287 222.395 319.449 223.904H319.208C318.774 223.904 318.341 223.904 317.907 223.904C317.04 223.904 316.181 223.985 315.322 224.057C313.559 224.203 311.807 224.472 310.08 224.86C310.063 224.86 310.047 224.866 310.035 224.878C310.023 224.89 310.016 224.907 310.016 224.924C310.016 224.941 310.023 224.957 310.035 224.969C310.047 224.981 310.063 224.988 310.08 224.988C311.822 224.787 313.572 224.627 315.322 224.563C316.125 224.563 317 224.563 317.835 224.563H319.208C319.448 224.595 319.692 224.573 319.922 224.498C320.682 225.488 321.442 226.481 322.202 227.477C322.804 228.279 323.398 229.082 323.984 229.885C324.57 230.688 325.124 231.611 325.782 232.382C325.815 232.325 325.903 232.253 325.871 232.189Z" fill="#263238"/>
<path d="M310.546 215.579C309.54 215.451 308.525 215.403 307.511 215.435C306.5 215.435 305.48 215.435 304.469 215.499C304.38 215.499 304.388 215.627 304.469 215.627C305.496 215.547 306.524 215.531 307.551 215.547C308.579 215.563 309.542 215.66 310.53 215.627C310.578 215.627 310.578 215.587 310.546 215.579Z" fill="#263238"/>
<path d="M319.456 217.867C319.569 216.896 319.689 215.925 319.898 214.969C319.898 214.952 319.891 214.936 319.879 214.924C319.867 214.912 319.851 214.905 319.834 214.905C319.817 214.905 319.8 214.912 319.788 214.924C319.776 214.936 319.769 214.952 319.769 214.969C319.625 215.925 319.44 216.872 319.304 217.827C319.232 218.301 319.167 218.782 319.103 219.256C319.022 219.704 318.984 220.158 318.991 220.613C318.996 220.631 319.008 220.647 319.023 220.658C319.038 220.669 319.056 220.675 319.075 220.675C319.094 220.675 319.112 220.669 319.127 220.658C319.143 220.647 319.154 220.631 319.159 220.613C319.244 220.165 319.292 219.711 319.304 219.256C319.344 218.791 319.4 218.325 319.456 217.867Z" fill="#263238"/>
<path d="M317.601 207.127C317.352 208.074 317.103 209.029 316.934 209.984C316.846 210.474 316.766 210.964 316.702 211.453C316.613 211.927 316.581 212.409 316.605 212.89C316.605 212.901 316.61 212.911 316.617 212.919C316.625 212.926 316.635 212.931 316.645 212.931C316.656 212.931 316.666 212.926 316.674 212.919C316.681 212.911 316.686 212.901 316.686 212.89C316.798 212.443 316.871 211.986 316.902 211.526C316.967 211.052 317.039 210.586 317.119 210.113C317.296 209.125 317.472 208.146 317.721 207.175C317.729 207.094 317.601 207.046 317.601 207.127Z" fill="#263238"/>
<path d="M280.674 264.686C280.513 262.903 280.336 261.113 280.152 259.331C279.772 255.799 279.346 252.269 278.875 248.742C278.402 245.234 277.952 241.71 277.382 238.21C277.177 236.573 276.814 234.96 276.298 233.393C276.115 232.725 275.781 232.108 275.322 231.589C274.862 231.069 274.29 230.663 273.649 230.399C270.31 229.251 268.03 232.711 266.713 235.159C266.673 235.232 266.778 235.288 266.826 235.224C267.628 234.06 269.86 230.808 272.397 230.961C274.099 231.057 275.464 232.269 276.282 236.516C278.321 247.105 280.16 268.627 280.377 270C280.489 270.747 281.011 270.714 281.019 269.912C280.987 268.194 280.786 266.436 280.674 264.686Z" fill="#263238"/>
<path d="M267.573 233.882C267.573 233.882 270.495 223.575 264.041 228.729C253.299 237.31 252.922 255.943 252.922 255.943C252.922 255.943 272.012 244.856 274.38 237.543C277.921 226.673 267.573 233.882 267.573 233.882Z" fill="#227E74"/>
<path d="M271.185 238.94C269.692 239.245 268.167 239.446 266.658 239.663L264.506 239.968C264.025 240.032 263.535 240.08 263.045 240.136C264.466 238.178 265.903 236.227 267.268 234.228C267.281 234.211 267.286 234.189 267.283 234.168C267.28 234.147 267.269 234.128 267.252 234.115C267.235 234.103 267.213 234.097 267.192 234.1C267.171 234.103 267.152 234.114 267.139 234.132C266.001 235.299 264.929 236.529 263.928 237.816L263.077 235.408C262.756 234.485 262.403 233.57 262.17 232.614C262.17 232.534 262.026 232.614 262.05 232.654C262.307 233.594 262.491 234.565 262.748 235.512C263.005 236.46 263.27 237.327 263.591 238.218C262.893 239.125 262.218 240.056 261.568 240.995C261.239 240.064 260.83 239.165 260.549 238.218C260.549 238.137 260.396 238.178 260.42 238.218C260.765 239.269 260.95 240.353 261.271 241.429C260.83 242.071 260.396 242.713 259.979 243.355C259.176 244.552 258.478 245.764 257.771 246.984C257.716 247.008 257.669 247.049 257.639 247.101C257.609 247.153 257.596 247.213 257.602 247.273C256.398 249.36 255.25 251.471 254.118 253.607C254.11 253.622 254.108 253.639 254.112 253.656C254.117 253.673 254.128 253.687 254.143 253.695C254.157 253.704 254.175 253.706 254.192 253.701C254.208 253.697 254.222 253.686 254.231 253.671C255.363 251.56 256.639 249.505 257.932 247.49C258.134 247.423 258.345 247.382 258.558 247.369L259.216 247.225C259.706 247.12 260.195 246.992 260.685 246.872C261.657 246.631 262.612 246.398 263.599 246.229C263.68 246.229 263.639 246.093 263.599 246.109C262.443 246.326 261.287 246.462 260.115 246.591C259.561 246.655 259.015 246.727 258.469 246.815H258.389C259.069 245.777 259.765 244.744 260.476 243.717C261.167 242.713 261.881 241.718 262.596 240.722C263.262 240.634 263.912 240.457 264.571 240.337L266.786 239.903C268.263 239.606 269.74 239.277 271.226 239.036C271.306 239.085 271.266 238.924 271.185 238.94Z" fill="#263238"/>
<path d="M259.713 239.959C259.625 239.686 259.544 239.414 259.456 239.157C259.277 238.587 259.13 238.008 259.015 237.423C259.015 237.342 258.878 237.383 258.894 237.423C259.023 238.009 259.159 238.587 259.287 239.165C259.404 239.748 259.571 240.32 259.785 240.875C259.799 240.898 259.819 240.916 259.844 240.926C259.869 240.936 259.897 240.938 259.923 240.93C259.949 240.923 259.971 240.907 259.987 240.885C260.003 240.864 260.011 240.837 260.01 240.81C259.922 240.537 259.801 240.248 259.713 239.959Z" fill="#263238"/>
<path d="M273.137 236.556C272.27 236.684 271.395 236.749 270.512 236.829C269.629 236.909 268.77 237.021 267.895 237.158C267.846 237.158 267.846 237.238 267.895 237.23C268.77 237.174 269.645 237.102 270.52 236.989C271.395 236.877 272.262 236.749 273.145 236.684C273.225 236.676 273.217 236.548 273.137 236.556Z" fill="#263238"/>
<path d="M294.682 251.64C294.337 244.054 293.879 236.476 293.076 228.922C292.699 225.157 292.273 221.4 291.744 217.683C291.276 214 290.549 210.354 289.568 206.773C288.896 203.989 287.661 201.372 285.94 199.083C285.089 197.969 283.97 197.09 282.686 196.528C281.402 195.966 279.997 195.74 278.602 195.871C275.287 196.281 272.605 198.376 270.293 200.648C267.7 203.201 265.324 205.986 262.924 208.676C262.314 209.366 261.712 210.064 261.11 210.763C261.061 210.827 261.15 210.915 261.206 210.851C263.558 208.154 266.023 205.529 268.551 203.024C270.912 200.704 273.368 198.207 276.579 197.212C278.099 196.73 279.726 196.691 281.267 197.1C282.495 197.487 283.602 198.187 284.478 199.131C286.325 201.041 287.352 203.634 288.091 206.147C290.13 213.123 290.861 220.436 291.615 227.637C292.37 234.838 292.908 242.288 293.277 249.641C293.646 256.995 293.935 264.42 294.65 271.79C294.738 272.697 294.85 273.604 294.971 274.511C295.043 275.113 295.99 275.121 295.942 274.511C295.372 266.885 295.019 259.267 294.682 251.64Z" fill="#263238"/>
<path d="M269.893 201.451C269.893 201.451 274.228 193.423 269.09 190.854C263.952 188.285 246.837 207.407 241.836 235.376C241.836 235.376 269.507 223.134 278.908 210.932C288.308 198.729 277.664 196.048 269.893 201.451Z" fill="#227E74"/>
<path d="M273.963 207.969C270.856 207.969 267.749 207.736 264.642 207.752L266.392 205.753C267.257 204.866 268.061 203.922 268.801 202.928C268.841 202.863 268.753 202.775 268.688 202.823C267.843 203.547 267.057 204.336 266.336 205.183C265.534 205.986 264.779 206.837 264.008 207.672C262.82 208.965 261.656 210.265 260.492 211.582C260.492 211.453 260.492 211.325 260.492 211.204C260.492 210.658 260.492 210.113 260.492 209.599C260.492 208.547 260.492 207.487 260.492 206.436C260.492 204.3 260.492 202.149 260.653 200.014C260.653 199.933 260.532 199.933 260.524 200.014C260.38 202.165 260.155 204.3 260.051 206.436C260.002 207.495 259.978 208.547 259.962 209.607C259.962 210.145 259.962 210.691 259.962 211.212C259.962 211.509 259.962 211.822 259.962 212.128C259.786 212.336 259.593 212.537 259.416 212.738C256.936 215.579 254.6 218.51 252.272 221.496C252.272 221.335 252.272 221.159 252.232 220.998C252.232 220.669 252.159 220.34 252.127 220.011C252.047 219.296 251.951 218.59 251.838 217.875C251.726 217.161 251.637 216.543 251.525 215.876C251.413 215.21 251.212 214.375 251.156 213.621C251.159 213.611 251.161 213.601 251.159 213.59C251.158 213.58 251.154 213.57 251.148 213.562C251.142 213.553 251.135 213.546 251.125 213.541C251.116 213.537 251.106 213.534 251.096 213.534C251.085 213.534 251.075 213.537 251.066 213.541C251.057 213.546 251.049 213.553 251.043 213.562C251.037 213.57 251.033 213.58 251.032 213.59C251.031 213.601 251.032 213.611 251.035 213.621C251.161 214.376 251.247 215.137 251.292 215.901L251.485 217.956C251.541 218.638 251.605 219.32 251.678 220.011L251.774 220.998C251.774 221.159 251.814 221.327 251.838 221.488C251.846 221.628 251.89 221.764 251.967 221.881L250.787 223.423C249.181 225.502 247.672 227.605 246.13 229.7C246.082 229.765 246.179 229.853 246.227 229.789C247.688 227.886 249.189 226.016 250.706 224.169C251.846 224.217 253.01 224.129 254.15 224.113C255.29 224.097 256.558 224.113 257.747 224.113C257.764 224.113 257.78 224.106 257.792 224.094C257.804 224.082 257.811 224.066 257.811 224.049C257.811 224.032 257.804 224.015 257.792 224.003C257.78 223.991 257.764 223.985 257.747 223.985C256.542 223.985 255.338 224.025 254.142 224.033C252.946 224.041 251.934 223.985 250.843 224.033C252.175 222.427 253.532 220.822 254.857 219.176L256.43 217.41C256.89 217.47 257.355 217.486 257.819 217.458H259.424C260.444 217.458 261.463 217.458 262.491 217.418C264.602 217.418 266.714 217.313 268.825 217.305C268.835 217.309 268.845 217.31 268.855 217.309C268.866 217.308 268.875 217.304 268.884 217.298C268.892 217.292 268.899 217.284 268.904 217.275C268.909 217.266 268.911 217.256 268.911 217.245C268.911 217.235 268.909 217.225 268.904 217.215C268.899 217.206 268.892 217.198 268.884 217.192C268.875 217.187 268.866 217.183 268.855 217.182C268.845 217.18 268.835 217.181 268.825 217.185C266.706 217.185 264.594 217.065 262.483 217.008C261.455 217.008 260.436 216.952 259.408 216.936H257.803C257.498 216.936 257.177 216.936 256.856 216.936L260.348 212.802C260.375 212.784 260.397 212.759 260.412 212.73C261.544 211.389 262.676 210.056 263.824 208.716C263.984 208.539 264.145 208.363 264.297 208.178C267.508 208.274 270.719 208.065 273.931 208.13C274.051 208.098 274.051 207.969 273.963 207.969Z" fill="#263238"/>
<path d="M272.374 213.468H271.619C271.604 213.468 271.59 213.474 271.58 213.485C271.569 213.495 271.563 213.509 271.563 213.524C271.563 213.539 271.569 213.553 271.58 213.564C271.59 213.575 271.604 213.58 271.619 213.58H272.366C272.376 213.576 272.385 213.568 272.392 213.559C272.398 213.549 272.402 213.538 272.403 213.527C272.404 213.515 272.402 213.504 272.397 213.493C272.391 213.483 272.384 213.474 272.374 213.468Z" fill="#263238"/>
<path d="M270.696 213.476C269.701 213.476 268.705 213.476 267.71 213.412L266.225 213.396C265.764 213.34 265.297 213.34 264.836 213.396C264.823 213.396 264.811 213.401 264.802 213.41C264.793 213.419 264.788 213.431 264.788 213.444C264.788 213.457 264.793 213.469 264.802 213.478C264.811 213.487 264.823 213.492 264.836 213.492C265.295 213.585 265.765 213.617 266.233 213.589H267.726H270.712C270.785 213.605 270.785 213.476 270.696 213.476Z" fill="#263238"/>
<path d="M262.002 222.821C259.977 222.48 257.93 222.295 255.877 222.267V222.307C257.916 222.5 259.947 222.612 261.97 222.941C262.05 222.957 262.082 222.829 262.002 222.821Z" fill="#263238"/>
<path d="M253.677 213.91C253.677 213.733 253.636 213.557 253.612 213.38C253.564 212.979 253.5 212.577 253.436 212.184C253.315 211.421 253.187 210.667 253.042 209.904C253.042 209.84 252.906 209.856 252.914 209.904C253.01 210.707 253.099 211.469 253.171 212.256L253.267 213.412C253.256 213.782 253.308 214.151 253.42 214.504C253.436 214.528 253.458 214.547 253.485 214.559C253.511 214.571 253.54 214.575 253.569 214.57C253.598 214.566 253.624 214.554 253.646 214.535C253.668 214.516 253.684 214.491 253.693 214.464C253.72 214.28 253.715 214.092 253.677 213.91Z" fill="#263238"/>
<path d="M294.41 191.151C293.414 189.305 292.154 186.872 289.681 187.025C287.642 187.153 286.719 189.232 286.286 190.958C284.937 196.281 284.841 201.9 284.584 207.359C284.022 218.895 283.524 230.439 283.452 241.991C283.452 245.202 283.452 248.413 283.452 251.624C283.452 254.891 283.452 258.175 283.677 261.434C283.677 261.498 283.702 261.559 283.747 261.604C283.792 261.649 283.854 261.675 283.918 261.675C283.981 261.675 284.043 261.649 284.088 261.604C284.133 261.559 284.158 261.498 284.158 261.434C284.158 258.64 284.078 255.815 284.07 253.053C284.062 250.291 284.07 247.602 284.118 244.873C284.209 239.355 284.356 233.837 284.56 228.319C284.768 222.837 285.009 217.354 285.242 211.871C285.355 209.133 285.475 206.388 285.595 203.65C285.716 200.913 285.828 198.344 286.133 195.703C286.302 194.218 286.519 192.74 286.832 191.287C286.984 190.203 287.425 189.18 288.108 188.325C288.579 187.859 289.202 187.578 289.863 187.53C290.524 187.483 291.18 187.674 291.713 188.068C292.844 188.884 293.73 189.995 294.273 191.279C294.29 191.298 294.314 191.308 294.339 191.309C294.364 191.31 294.388 191.3 294.406 191.283C294.424 191.266 294.435 191.243 294.435 191.218C294.436 191.193 294.427 191.169 294.41 191.151Z" fill="#263238"/>
<path d="M293.735 190.268C293.735 190.268 291.704 183.091 296.199 186.68C303.681 192.652 303.946 205.649 303.946 205.649C303.946 205.649 290.644 197.927 288.99 192.805C286.526 185.243 293.735 190.268 293.735 190.268Z" fill="#227E74"/>
<path d="M301.145 200.327C301.025 200.126 300.896 199.933 300.768 199.733C300.784 199.53 300.784 199.326 300.768 199.123C300.768 198.818 300.768 198.504 300.768 198.199C300.768 197.589 300.768 196.979 300.832 196.377C300.832 196.36 300.825 196.344 300.813 196.332C300.801 196.32 300.785 196.313 300.768 196.313C300.751 196.313 300.735 196.32 300.723 196.332C300.71 196.344 300.704 196.36 300.704 196.377C300.704 196.971 300.648 197.573 300.631 198.167C300.631 198.464 300.631 198.761 300.631 199.058C300.631 199.171 300.631 199.307 300.631 199.444C300.11 198.641 299.572 197.838 299.026 197.035C298.865 196.803 298.697 196.578 298.536 196.353C298.451 195.575 298.437 194.79 298.496 194.009C298.496 193.206 298.496 192.339 298.544 191.504C298.544 191.424 298.416 191.424 298.416 191.504C298.416 192.371 298.352 193.238 298.303 194.105C298.251 194.722 298.235 195.341 298.255 195.96C296.971 194.218 295.606 192.532 294.241 190.854C294.193 190.798 294.097 190.854 294.145 190.934C294.996 192.018 295.815 193.126 296.618 194.25C295.052 193.88 293.463 193.672 291.873 193.447C291.793 193.447 291.761 193.559 291.873 193.575C293.559 193.832 295.213 194.25 296.874 194.619C297.509 195.518 298.143 196.417 298.761 197.324L299.516 198.432H299.451L298.93 198.36L297.822 198.264C297.059 198.199 296.288 198.159 295.518 198.119C295.438 198.119 295.446 198.248 295.518 198.248C296.272 198.248 297.027 198.32 297.774 198.4L298.97 198.545L299.484 198.609H299.636C300.062 199.235 300.495 199.861 300.912 200.487C301.667 201.603 302.341 202.791 303.136 203.859C303.146 203.868 303.159 203.873 303.173 203.875C303.187 203.876 303.2 203.872 303.212 203.865C303.224 203.858 303.233 203.847 303.238 203.835C303.243 203.822 303.244 203.808 303.24 203.795C302.612 202.598 301.913 201.44 301.145 200.327Z" fill="#263238"/>
<path d="M297.838 192.219C297.838 191.938 297.838 191.657 297.838 191.376C297.822 190.789 297.846 190.202 297.91 189.618C297.914 189.608 297.915 189.598 297.914 189.588C297.913 189.577 297.909 189.568 297.903 189.559C297.897 189.551 297.889 189.544 297.88 189.539C297.871 189.534 297.861 189.532 297.85 189.532C297.84 189.532 297.83 189.534 297.821 189.539C297.811 189.544 297.803 189.551 297.798 189.559C297.792 189.568 297.788 189.577 297.787 189.588C297.785 189.598 297.786 189.608 297.79 189.618C297.79 190.204 297.726 190.782 297.694 191.36C297.694 191.657 297.694 191.946 297.694 192.235V192.637C297.674 192.775 297.674 192.916 297.694 193.054C297.694 193.069 297.7 193.083 297.71 193.094C297.721 193.104 297.735 193.11 297.75 193.11C297.765 193.11 297.779 193.104 297.79 193.094C297.8 193.083 297.806 193.069 297.806 193.054C297.826 192.926 297.826 192.796 297.806 192.669L297.838 192.219Z" fill="#263238"/>
<path d="M296.191 195.189C295.693 195.1 295.187 195.076 294.69 195.036C294.192 194.996 293.598 194.94 293.084 194.867C293.067 194.867 293.051 194.874 293.039 194.886C293.027 194.898 293.02 194.915 293.02 194.932C293.02 194.949 293.027 194.965 293.039 194.977C293.051 194.989 293.067 194.996 293.084 194.996C294.136 195.06 295.179 195.253 296.231 195.285C296.239 195.293 296.247 195.197 296.191 195.189Z" fill="#263238"/>
<path d="M300.365 195.229C300.405 195.285 300.365 195.446 300.365 195.51V196.241C300.365 196.409 300.365 196.578 300.365 196.746C300.337 196.89 300.337 197.037 300.365 197.18C300.365 197.18 300.405 197.18 300.413 197.18C300.429 197.111 300.429 197.04 300.413 196.971C300.409 196.894 300.409 196.816 300.413 196.738V196.241C300.413 196.072 300.413 195.904 300.413 195.735V195.51C300.413 195.438 300.413 195.285 300.413 195.229C300.413 195.173 300.285 195.109 300.365 195.229Z" fill="#263238"/>
<path d="M294.714 229.451C291.921 227.356 289.408 224.337 285.643 224.185C282.536 224.065 280.361 226.401 279.116 229.002C278.494 230.389 277.987 231.826 277.599 233.296C277.037 235.255 276.502 237.227 275.994 239.213C275.025 243.114 274.195 247.048 273.505 251.014C273.128 253.221 272.774 255.437 272.493 257.661C272.141 259.915 271.923 262.188 271.843 264.468C271.842 264.556 271.873 264.641 271.931 264.707C271.989 264.773 272.069 264.815 272.156 264.825C272.243 264.835 272.331 264.812 272.402 264.761C272.473 264.71 272.523 264.634 272.542 264.549C272.919 262.686 273.079 260.767 273.344 258.889C273.609 257.01 273.906 255.108 274.219 253.229C274.862 249.483 275.606 245.737 276.451 241.991C277.254 238.466 278.057 234.894 279.173 231.466C279.975 229.01 281.292 226.144 283.949 225.261C287.963 223.92 291.648 227.332 294.602 229.556C294.69 229.596 294.779 229.499 294.714 229.451Z" fill="#263238"/>
<path d="M291.824 227.444C291.824 227.444 289.239 220.083 292.972 218.614C298.592 216.454 313.186 232.927 310.32 258.167C310.32 258.167 299.025 251.945 290.676 244.937C282.328 237.929 280.24 228.785 283.877 226.425C287.513 224.065 291.824 227.444 291.824 227.444Z" fill="#227E74"/>
<path d="M308.635 252.78C308.247 251.899 307.793 251.048 307.278 250.235C306.797 249.368 306.315 248.509 305.817 247.658C304.846 245.996 303.883 244.335 302.887 242.681L302.397 241.878C302.397 241.782 302.438 241.677 302.454 241.581L302.622 240.851C302.751 240.305 302.847 239.751 302.943 239.197C303.152 238.121 303.337 237.029 303.626 235.986C303.626 235.914 303.521 235.889 303.505 235.986C303.273 237.062 302.927 238.129 302.614 239.197C302.454 239.719 302.285 240.232 302.149 240.762L302.004 241.3C300.808 239.333 299.596 237.375 298.263 235.48C298.349 235.221 298.395 234.95 298.4 234.677C298.44 234.308 298.48 233.939 298.528 233.569C298.624 232.767 298.721 231.908 298.841 231.081C299.082 229.475 299.323 227.87 299.724 226.264C299.724 226.184 299.62 226.16 299.604 226.264C299.194 227.87 298.761 229.475 298.456 231.081C298.311 231.884 298.167 232.686 298.063 233.489C298.014 233.891 297.966 234.292 297.926 234.693C297.926 234.806 297.926 234.934 297.878 235.055C297.476 234.485 297.075 233.907 296.65 233.353C295.357 231.651 294.017 229.997 292.636 228.343C292.588 228.279 292.475 228.343 292.531 228.416C294.843 231.372 296.967 234.472 298.889 237.696L299.989 239.486L299.62 239.438C299.146 239.374 298.673 239.349 298.199 239.301L295.341 239.052C293.439 238.9 291.528 238.788 289.633 238.587C289.553 238.587 289.529 238.699 289.633 238.707C291.56 238.932 293.471 239.237 295.389 239.51C296.337 239.646 297.276 239.775 298.223 239.895C298.94 240.038 299.668 240.11 300.399 240.112C301.145 241.332 301.9 242.52 302.646 243.757C302.478 243.757 302.301 243.757 302.141 243.757H299.419C298.191 243.757 296.963 243.757 295.742 243.757C295.654 243.757 295.67 243.877 295.742 243.877C296.987 243.877 298.223 243.957 299.467 244.022L301.233 244.126L302.117 244.19C302.381 244.252 302.655 244.252 302.919 244.19L304.83 247.289C305.416 248.244 306.01 249.191 306.612 250.139C307.18 251.143 307.821 252.104 308.531 253.013C308.563 252.9 308.667 252.86 308.635 252.78Z" fill="#263238"/>
<path d="M303.248 232.381C303.135 233.195 302.966 234 302.742 234.79C302.534 235.593 302.301 236.395 302.036 237.198C302.032 237.208 302.03 237.219 302.03 237.231C302.03 237.242 302.033 237.253 302.037 237.263C302.042 237.273 302.049 237.282 302.057 237.289C302.065 237.297 302.075 237.302 302.086 237.305C302.096 237.309 302.108 237.31 302.119 237.309C302.13 237.307 302.14 237.304 302.15 237.298C302.16 237.293 302.168 237.285 302.175 237.276C302.181 237.267 302.186 237.257 302.188 237.246C302.437 236.443 302.662 235.641 302.855 234.838C303.047 234.035 303.176 233.232 303.376 232.389C303.378 232.372 303.372 232.356 303.36 232.343C303.349 232.33 303.333 232.322 303.316 232.321C303.299 232.32 303.282 232.326 303.27 232.337C303.257 232.349 303.249 232.364 303.248 232.381Z" fill="#263238"/>
<path d="M294.947 237.311C294.773 237.165 294.555 237.083 294.329 237.078L293.261 236.933C292.603 236.845 291.936 236.773 291.278 236.692C289.897 236.532 288.525 236.395 287.144 236.227C287.064 236.227 287.04 236.339 287.144 236.347C288.444 236.508 289.737 236.709 291.037 236.877L292.94 237.126L293.863 237.222C294.219 237.226 294.572 237.288 294.907 237.407C294.918 237.407 294.929 237.404 294.938 237.398C294.948 237.392 294.955 237.383 294.959 237.372C294.964 237.362 294.965 237.351 294.963 237.34C294.96 237.329 294.955 237.319 294.947 237.311Z" fill="#263238"/>
<path d="M303.233 248.413C302.582 248.356 301.924 248.332 301.274 248.316H300.287H299.813C299.607 248.336 299.4 248.336 299.195 248.316C299.106 248.316 299.098 248.453 299.195 248.437C299.387 248.417 299.581 248.417 299.773 248.437H300.287L301.266 248.501C301.916 248.541 302.574 248.581 303.225 248.581C303.305 248.549 303.313 248.413 303.233 248.413Z" fill="#263238"/>
<path d="M307.213 245.587L307.43 244.479C307.558 243.749 307.694 243.018 307.831 242.296C307.831 242.278 307.824 242.262 307.812 242.25C307.8 242.238 307.784 242.231 307.767 242.231C307.75 242.231 307.733 242.238 307.721 242.25C307.709 242.262 307.703 242.278 307.703 242.296L307.221 244.423C307.141 244.776 307.06 245.129 306.988 245.483C306.988 245.651 306.924 245.812 306.884 245.98C306.833 246.149 306.814 246.326 306.827 246.502C306.829 246.518 306.835 246.534 306.846 246.546C306.856 246.559 306.87 246.567 306.886 246.572C306.902 246.576 306.918 246.576 306.934 246.57C306.949 246.565 306.962 246.555 306.972 246.542C307.112 246.242 307.194 245.918 307.213 245.587Z" fill="#263238"/>
<path d="M268.954 261.643L269.74 270.594L272.414 300.802H296.071L299.411 270.594L300.398 261.643H268.954Z" fill="#37474F"/>
<path d="M268.954 261.643L269.74 270.594H299.411L300.398 261.643H268.954Z" fill="#263238"/>
<path d="M266.609 266.467H302.742V259.21H266.609V266.467Z" fill="#37474F"/>
<path d="M140.991 231.964C140.991 219.119 143.089 207.578 147.285 197.34C151.481 187.102 160.135 178.183 173.247 170.583C177.186 168.223 182.04 165.547 187.809 162.556C193.746 159.438 199.405 155.818 204.724 151.734C210.161 147.622 214.881 142.64 218.692 136.987C222.534 131.226 224.526 124.428 224.4 117.504C224.515 112.461 223.442 107.462 221.269 102.909C219.264 98.8455 216.454 95.232 213.008 92.2887C209.47 89.3396 205.375 87.1311 200.967 85.7942C196.448 84.3678 191.737 83.6395 186.998 83.6347C181.628 83.5613 176.296 84.5545 171.312 86.5569C166.727 88.4461 162.427 90.9613 158.532 94.0307C154.736 97.0357 151.302 100.47 148.297 104.266C145.53 107.716 142.97 111.327 140.63 115.079H134.706L106.392 91.4779C109.667 83.5415 114.256 76.2138 119.967 69.8029C125.551 63.5521 132.046 58.1799 139.233 53.8678C146.545 49.521 154.434 46.2292 162.666 44.09C171.141 41.8516 179.871 40.7263 188.636 40.7424C198.63 40.748 208.571 42.2056 218.146 45.0694C227.695 47.8796 236.588 52.5625 244.309 58.845C252.284 65.4464 258.729 73.7022 263.198 83.0407C268.047 92.8774 270.471 104.617 270.471 118.258C270.593 125.773 269.6 133.264 267.525 140.487C265.641 146.736 262.783 152.647 259.056 158.004C255.364 163.27 251 168.031 246.075 172.165C240.726 176.621 235.071 180.695 229.152 184.359C223.902 187.517 218.657 190.535 213.418 193.414C208.347 196.181 203.54 199.405 199.056 203.048C194.834 206.47 191.238 210.598 188.427 215.25C185.677 219.842 184.301 225.416 184.301 231.972L140.991 231.964ZM141.794 323.633V269.341H185.465V323.633H141.794Z" fill="#227E74"/>
<g opacity="0.2">
<path d="M140.992 231.964C140.992 219.119 143.09 207.578 147.286 197.34C151.481 187.102 160.135 178.183 173.247 170.583C177.186 168.223 182.04 165.547 187.81 162.556C193.746 159.438 199.405 155.818 204.724 151.734C210.162 147.622 214.881 142.64 218.692 136.987C222.535 131.226 224.526 124.428 224.4 117.504C224.515 112.461 223.443 107.462 221.269 102.909C219.265 98.8455 216.454 95.232 213.009 92.2887C209.47 89.3396 205.375 87.1311 200.967 85.7942C196.448 84.3678 191.738 83.6395 186.999 83.6347C181.628 83.5613 176.297 84.5545 171.313 86.5569C166.728 88.4461 162.427 90.9613 158.532 94.0307C154.737 97.0357 151.302 100.47 148.297 104.266C145.531 107.716 142.971 111.327 140.631 115.079H134.706L106.392 91.4779C109.667 83.5415 114.256 76.2138 119.967 69.8029C125.551 63.5521 132.046 58.1799 139.234 53.8678C146.545 49.521 154.434 46.2292 162.667 44.09C171.141 41.8516 179.871 40.7263 188.637 40.7424C198.631 40.748 208.571 42.2056 218.147 45.0694C227.695 47.8796 236.589 52.5625 244.309 58.845C252.284 65.4464 258.729 73.7022 263.198 83.0407C268.047 92.8774 270.472 104.617 270.472 118.258C270.593 125.773 269.6 133.264 267.525 140.487C265.642 146.736 262.784 152.647 259.056 158.004C255.365 163.27 251.001 168.031 246.075 172.165C240.727 176.621 235.072 180.695 229.153 184.359C223.903 187.517 218.658 190.535 213.418 193.414C208.347 196.181 203.54 199.405 199.057 203.048C194.835 206.47 191.238 210.598 188.428 215.25C185.677 219.842 184.302 225.416 184.302 231.972L140.992 231.964ZM141.795 323.633V269.341H185.466V323.633H141.795Z" fill="black"/>
</g>
<path d="M135.099 231.964C135.099 219.119 137.197 207.578 141.393 197.34C145.589 187.102 154.246 178.183 167.363 170.583C171.297 168.223 176.148 165.547 181.917 162.556C187.858 159.44 193.519 155.82 198.84 151.734C204.275 147.621 208.995 142.638 212.808 136.987C216.644 131.223 218.632 124.427 218.508 117.504C218.611 112.473 217.534 107.488 215.361 102.95C213.356 98.8857 210.546 95.2722 207.1 92.3289C203.562 89.3798 199.467 87.1713 195.059 85.8344C190.54 84.408 185.829 83.6797 181.09 83.675C175.72 83.586 170.385 84.5656 165.396 86.5569C160.809 88.4465 156.506 90.9616 152.608 94.0308C148.815 97.0359 145.383 100.471 142.381 104.266C139.612 107.716 137.049 111.327 134.706 115.08L100.476 91.4779C103.748 83.5403 108.338 76.2123 114.051 69.803C119.632 63.5499 126.128 58.1773 133.317 53.8679C140.626 49.5223 148.513 46.2306 156.742 44.0901C165.225 41.8489 173.963 40.7235 182.736 40.7425C192.731 40.7475 202.671 42.2051 212.246 45.0694C221.796 47.8779 230.69 52.5609 238.409 58.8451C246.386 65.4447 252.831 73.7009 257.298 83.0407C262.147 92.8774 264.574 104.617 264.579 118.259C264.698 125.773 263.703 133.264 261.625 140.487C259.737 146.738 256.87 152.65 253.132 158.004C249.44 163.27 245.076 168.031 240.151 172.165C234.805 176.624 229.15 180.699 223.228 184.359C217.989 187.517 212.744 190.535 207.494 193.414C202.423 196.181 197.616 199.405 193.132 203.048C188.912 206.47 185.319 210.599 182.511 215.25C179.761 219.842 178.382 225.416 178.377 231.972L135.099 231.964ZM135.902 323.633V269.341H179.525V323.633H135.902Z" fill="#227E74"/>
<path d="M117.1 327.976C115.39 328.522 66.6373 327.896 64.799 326.691C64.0925 326.242 63.7714 319.137 63.6269 310.532V310.267C63.6269 308.493 63.5707 306.662 63.5627 304.816C63.5627 304.559 63.5627 304.302 63.5627 304.053C63.4985 291.642 63.6911 278.758 63.6911 278.758L96.3079 279.087L95.3205 304.109L95.2804 305.105L95.0797 310.291V310.821C95.0797 310.821 113.616 319.442 115.502 320.968C117.389 322.493 118.81 327.43 117.1 327.976Z" fill="#AD6359"/>
<path d="M117.102 327.975C115.392 328.521 66.639 327.895 64.8006 326.691C64.0942 326.241 63.7731 319.137 63.6286 310.531V310.266C63.6286 308.492 63.5724 306.662 63.5644 304.815C63.5644 304.558 63.5644 304.302 63.5644 304.053L95.3302 304.141L95.2901 305.136L95.0894 310.322V310.852C95.0894 310.852 113.617 319.442 115.504 320.967C117.391 322.492 118.811 327.43 117.102 327.975Z" fill="#EBEBEB"/>
<path d="M117.101 327.976C116.049 328.313 97.1599 328.2 82.3727 327.783C73.1408 327.534 65.5144 327.149 64.8 326.691C64.0855 326.234 63.7805 319.338 63.636 310.892C63.636 310.772 63.636 310.652 63.636 310.531C63.636 310.411 63.636 310.347 63.636 310.258L95.0968 310.322V310.852C95.0968 310.852 113.657 319.442 115.535 320.975C117.414 322.509 118.811 327.43 117.101 327.976Z" fill="#227E74"/>
<path d="M116.579 326.073C108.358 325.768 75.1957 325.271 67.0475 325.616C66.9833 325.616 66.9833 325.664 67.0475 325.672C75.1877 326.154 108.35 326.354 116.571 326.21C116.747 326.21 116.747 326.081 116.579 326.073Z" fill="#263238"/>
<path d="M98.5806 310.451C95.3695 309.809 91.3958 310.25 88.8911 312.522C88.7948 312.611 88.8911 312.747 89.0276 312.715C92.132 311.761 95.3289 311.139 98.5646 310.86C98.6124 310.853 98.6562 310.829 98.6885 310.793C98.7207 310.757 98.7394 310.711 98.7413 310.662C98.7432 310.614 98.7282 310.566 98.6989 310.528C98.6696 310.489 98.6278 310.462 98.5806 310.451Z" fill="#263238"/>
<path d="M100.901 311.889C97.6904 311.246 93.7167 311.688 91.212 313.96C91.1157 314.048 91.212 314.185 91.3485 314.152C94.4422 313.2 97.6284 312.578 100.853 312.298C100.903 312.296 100.95 312.276 100.987 312.243C101.023 312.209 101.046 312.163 101.052 312.114C101.058 312.065 101.046 312.015 101.018 311.973C100.991 311.932 100.949 311.902 100.901 311.889Z" fill="#263238"/>
<path d="M103.212 313.326C100.001 312.683 96.0271 313.125 93.5224 315.397C93.4261 315.485 93.5224 315.622 93.6589 315.589C96.7636 314.638 99.9605 314.019 103.196 313.743C103.251 313.745 103.305 313.725 103.346 313.688C103.386 313.65 103.411 313.598 103.413 313.542C103.415 313.487 103.395 313.433 103.357 313.392C103.32 313.352 103.267 313.328 103.212 313.326Z" fill="#263238"/>
<path d="M102.883 303.451C101.631 301.685 99.2545 302.448 97.8898 303.564C95.5823 305.524 93.8323 308.057 92.8162 310.909C92.8109 310.921 92.8087 310.934 92.8098 310.948C92.8108 310.961 92.8151 310.974 92.8223 310.985C92.8294 310.996 92.8392 311.005 92.8507 311.011C92.8623 311.018 92.8753 311.021 92.8885 311.022C92.8885 311.27 93.1133 311.535 93.3942 311.431C96.0755 310.476 99.0618 309.825 101.374 308.043C102.722 307.024 104.063 305.129 102.883 303.451ZM97.1592 309.151C95.8507 309.657 94.5261 310.09 93.2417 310.636C94.2371 309.207 95.1603 307.746 96.3003 306.414C96.8407 305.769 97.4197 305.158 98.0343 304.583C99.0137 303.724 102.851 301.91 102.225 305.45C101.888 307.401 98.7247 308.557 97.1592 309.151Z" fill="#263238"/>
<path d="M84.6036 309.953C87.2528 311.125 90.3194 311.109 93.1532 311.422C93.4422 311.422 93.5947 311.141 93.5465 310.901C93.559 310.896 93.5704 310.89 93.5799 310.88C93.5893 310.871 93.5966 310.86 93.6012 310.848C93.6058 310.836 93.6077 310.822 93.6065 310.809C93.6054 310.796 93.6014 310.784 93.5947 310.772C91.9439 308.234 89.6579 306.173 86.9638 304.792C85.3582 303.989 82.8857 303.828 82.0829 305.835C81.2801 307.842 83.0543 309.271 84.6036 309.953ZM83.1747 307.625C81.7618 304.326 85.9121 305.217 87.0521 305.827C87.7884 306.235 88.4941 306.697 89.1634 307.208C90.5384 308.273 91.8568 309.409 93.113 310.612C91.7323 310.371 90.3435 310.258 88.9547 310.066C87.3009 309.849 83.9935 309.448 83.1907 307.625H83.1747Z" fill="#263238"/>
<path d="M82.3896 327.783C73.1577 327.535 65.5313 327.149 64.8168 326.692C64.1024 326.234 63.7973 319.338 63.6528 310.893C67.4258 314.273 76.8344 322.662 82.3896 327.783Z" fill="#263238"/>
<path d="M53.6826 138.32C53.6826 138.32 61.0039 220.701 62.192 226.987C62.473 228.424 62.6416 236.211 62.7539 246.213C63.0028 268.057 62.8583 307.441 62.8583 307.441H97.2252C97.2252 307.441 96.2056 239.205 94.6804 226.641C93.1551 214.078 83.4415 138.336 83.4415 138.336L53.6826 138.32Z" fill="#37474F"/>
<path d="M95.6666 301.452C90.304 301.34 91.8454 301.3 86.4828 301.244C83.8577 301.244 66.6141 301.075 64.1576 301.476C64.1427 301.476 64.1284 301.482 64.1179 301.493C64.1073 301.503 64.1014 301.518 64.1014 301.533C64.1014 301.547 64.1073 301.562 64.1179 301.572C64.1284 301.583 64.1427 301.589 64.1576 301.589C66.6141 301.99 83.8577 301.846 86.4828 301.814C91.8454 301.765 90.304 301.725 95.6666 301.613C95.6879 301.613 95.7083 301.604 95.7233 301.589C95.7384 301.574 95.7468 301.554 95.7468 301.533C95.7468 301.511 95.7384 301.491 95.7233 301.476C95.7083 301.461 95.6879 301.452 95.6666 301.452Z" fill="#263238"/>
<path d="M69.385 262.445C69.3422 257.457 69.3047 252.472 69.2726 247.489C69.2726 242.673 69.2726 237.856 69.0157 233.039C68.5501 223.27 66.6074 213.668 65.1624 204.011C63.7174 194.354 62.5775 184.656 61.5098 174.95C60.3136 164.065 59.262 153.155 58.1461 142.261C58.1461 142.189 58.0177 142.189 58.0257 142.261C59.6313 161.721 61.4536 181.172 64.1429 200.511C64.8172 205.328 65.5504 210.128 66.3425 214.913C67.1453 219.729 67.948 224.61 68.3253 229.515C68.7026 234.42 68.7588 239.148 68.807 243.965C68.8659 248.953 68.9167 253.936 68.9595 258.913C69.0639 269.975 69.1682 287.01 69.2806 298.072C69.289 298.11 69.3098 298.143 69.3397 298.167C69.3696 298.191 69.4068 298.204 69.4452 298.204C69.4836 298.204 69.5208 298.191 69.5507 298.167C69.5806 298.143 69.6015 298.11 69.6098 298.072C69.5456 288.15 69.4572 272.311 69.385 262.445Z" fill="#263238"/>
<path d="M46.4334 138.32C46.4334 138.32 61.0038 220.701 62.1919 226.987C62.4729 228.424 62.6415 236.211 62.7539 246.213L79.1787 138.32H46.4334Z" fill="#263238"/>
<path d="M77.1945 330.882C75.4525 331.307 26.8605 327.221 25.1104 325.897C24.4361 325.399 24.6207 318.286 25.1104 309.697C25.1104 309.608 25.1104 309.512 25.1104 309.424C25.2067 307.657 25.3111 305.835 25.4395 303.989L25.4877 303.186C26.2905 290.799 27.4063 277.963 27.4063 277.963L59.9107 280.644L57.1572 305.53L57.0529 306.518L56.4909 311.679L56.4347 312.209C56.4347 312.209 74.3286 322.091 76.1027 323.753C77.8769 325.415 78.9365 330.456 77.1945 330.882Z" fill="#AD6359"/>
<path d="M77.1945 330.882C75.4525 331.307 26.8605 327.221 25.1104 325.897C24.4361 325.399 24.6207 318.286 25.1104 309.696C25.1104 309.608 25.1104 309.512 25.1104 309.424C25.2067 307.657 25.3111 305.835 25.4395 303.989L25.4877 303.186L57.1572 305.522L57.0529 306.509L56.4909 311.671L56.4347 312.201C56.4347 312.201 74.3286 322.083 76.1027 323.745C77.8769 325.407 78.9365 330.456 77.1945 330.882Z" fill="#EBEBEB"/>
<path d="M77.1945 330.882C75.4525 331.307 26.8605 327.221 25.1104 325.897C24.4361 325.399 24.6207 318.286 25.1104 309.697C25.1104 309.608 25.1104 309.512 25.1104 309.424L56.4909 311.712L56.4347 312.242C56.4347 312.242 74.3286 322.124 76.1027 323.785C77.8769 325.447 78.9365 330.457 77.1945 330.882Z" fill="#227E74"/>
<path d="M76.77 328.947C68.5978 328.056 35.5475 325.246 27.3993 324.981C27.3351 324.981 27.327 325.03 27.3993 325.038C35.4752 326.097 68.5496 328.642 76.762 329.052C76.9627 329.092 76.9787 328.995 76.77 328.947Z" fill="#263238"/>
<path d="M59.9592 312.089C56.7481 311.222 52.8065 311.383 50.1493 313.47C50.0449 313.55 50.1493 313.703 50.2697 313.679C53.4293 312.942 56.6589 312.546 59.903 312.499C59.9533 312.498 60.0017 312.48 60.0395 312.447C60.0773 312.414 60.1018 312.368 60.1087 312.318C60.1155 312.268 60.1042 312.218 60.0767 312.176C60.0492 312.134 60.0075 312.103 59.9592 312.089Z" fill="#263238"/>
<path d="M62.1751 313.686C58.964 312.819 55.0143 312.98 52.3571 315.067C52.2608 315.147 52.3571 315.3 52.4776 315.276C55.6373 314.539 58.8668 314.144 62.1109 314.096C62.1619 314.098 62.2117 314.081 62.2511 314.048C62.2904 314.016 62.3165 313.97 62.3244 313.92C62.3323 313.869 62.3215 313.818 62.294 313.775C62.2665 313.732 62.2242 313.7 62.1751 313.686Z" fill="#263238"/>
<path d="M64.3821 315.284C61.171 314.417 57.2214 314.578 54.5642 316.665C54.4678 316.745 54.5642 316.898 54.6926 316.873C57.8521 316.136 61.0818 315.74 64.3259 315.693C64.3762 315.693 64.4246 315.675 64.4624 315.642C64.5002 315.608 64.5248 315.563 64.5316 315.513C64.5384 315.463 64.5271 315.413 64.4996 315.371C64.4722 315.329 64.4304 315.298 64.3821 315.284Z" fill="#263238"/>
<path d="M64.7274 305.418C63.6116 303.563 61.1872 304.149 59.7422 305.169C57.287 306.955 55.3482 309.359 54.1228 312.137C54.1228 312.201 54.1228 312.241 54.187 312.257C54.1796 312.32 54.187 312.383 54.2087 312.443C54.2304 312.502 54.2658 312.555 54.3119 312.598C54.358 312.641 54.4136 312.673 54.4742 312.69C54.5348 312.708 54.5987 312.711 54.6606 312.699C57.3981 311.936 60.4326 311.463 62.857 309.881C64.3341 308.926 65.8032 307.168 64.7274 305.418ZM58.6183 310.692C57.2777 311.101 55.929 311.439 54.6044 311.896C55.6512 310.502 56.7685 309.162 57.952 307.882C58.5337 307.274 59.1559 306.705 59.8144 306.18C60.85 305.378 64.7997 303.844 63.9327 307.336C63.4751 309.279 60.2319 310.21 58.6344 310.692H58.6183Z" fill="#263238"/>
<path d="M46.0552 310.604C48.6161 311.961 51.6747 312.161 54.4763 312.667C54.7653 312.723 54.9419 312.426 54.9098 312.185C54.9223 312.181 54.9337 312.174 54.9432 312.165C54.9526 312.156 54.9599 312.145 54.9645 312.133C54.9691 312.12 54.971 312.107 54.9698 312.094C54.9687 312.081 54.9647 312.068 54.958 312.057C53.4963 309.409 51.3612 307.193 48.7686 305.635C47.2433 304.744 44.7547 304.382 43.8315 306.325C42.9083 308.268 44.5621 309.809 46.0552 310.604ZM44.7949 308.195C43.6148 304.8 47.6929 305.98 48.8087 306.67C49.5116 307.135 50.1821 307.648 50.8157 308.204C52.1125 309.364 53.3477 310.591 54.5165 311.88C53.1518 311.543 51.779 311.326 50.4063 311.077C48.7526 310.684 45.4612 310.058 44.7949 308.179V308.195Z" fill="#263238"/>
<path d="M57.8791 309.295L23.5444 307.842C23.5444 307.842 32.9208 232.493 33.0894 227.845C33.539 215.804 41.5266 138.263 41.5266 138.263H83.4636C83.4636 138.263 80.8145 156.173 76.2948 167.525C73.2526 168.589 70.3154 169.933 67.5205 171.538C67.5205 171.538 63.5869 222.828 63.4424 229.226C63.1213 241.894 57.8791 309.295 57.8791 309.295Z" fill="#37474F"/>
<path d="M56.9652 303.001C51.6187 302.664 53.16 302.688 47.7975 302.407C45.1804 302.271 27.9529 301.396 25.4883 301.693C25.4322 301.693 25.4322 301.789 25.4883 301.805C27.8967 302.311 45.1644 302.897 47.7814 302.977C53.144 303.154 51.6107 303.05 56.9732 303.162C56.9945 303.161 57.0145 303.151 57.0288 303.136C57.0431 303.12 57.0506 303.099 57.0495 303.078C57.0484 303.056 57.039 303.036 57.0231 303.022C57.0073 303.008 56.9865 303 56.9652 303.001Z" fill="#263238"/>
<path d="M44.6024 142.888C43.0451 162.419 41.4475 181.959 39.6573 201.49C37.8672 221.022 35.7719 240.634 33.2351 260.133C31.8142 271.011 30.2087 286.352 28.5148 297.205C28.5148 297.278 28.6111 297.31 28.6272 297.205C32.0872 277.939 34.632 253.984 36.7914 234.517C38.9509 215.049 40.725 195.526 42.3065 176.002C43.1976 164.956 44.0004 153.902 44.8513 142.856C44.8593 142.751 44.6586 142.751 44.6024 142.888Z" fill="#263238"/>
<path d="M77.7886 166.771C74.232 168.073 70.7963 169.685 67.5211 171.587C67.4934 171.6 67.4719 171.623 67.4614 171.652C67.4509 171.681 67.4521 171.712 67.4649 171.74C67.4777 171.768 67.5009 171.789 67.5295 171.8C67.5581 171.81 67.5897 171.809 67.6174 171.796C71.0774 170.311 74.6016 168.89 77.9732 167.212C78.0318 167.188 78.0782 167.141 78.1023 167.082C78.1264 167.024 78.1262 166.958 78.1017 166.899C78.0772 166.841 78.0305 166.794 77.9717 166.77C77.913 166.746 77.8472 166.746 77.7886 166.771Z" fill="#263238"/>
<path d="M78.888 143.032C78.888 142.912 78.6713 142.888 78.6713 143.032C78.6713 147.135 78.4385 150.747 78.0933 154.592C77.9327 156.375 76.4877 166.217 73.4051 165.502C72.8913 165.382 72.6023 164.868 72.5461 164.089C72.5519 163.07 72.6896 162.055 72.9555 161.071C73.2927 159.008 73.5736 156.944 73.7583 154.857C74.117 150.98 74.0739 147.077 73.6298 143.209C73.6236 143.187 73.6104 143.168 73.5923 143.154C73.5742 143.141 73.5522 143.133 73.5295 143.133C73.5068 143.133 73.4847 143.141 73.4666 143.154C73.4485 143.168 73.4354 143.187 73.4291 143.209C73.5205 148.577 73.2066 153.944 72.4899 159.265C72.1046 161.825 70.8121 165.687 73.4934 166.072C76.1746 166.457 77.9889 160.019 78.31 158.253C79.162 153.226 79.3563 148.11 78.888 143.032Z" fill="#263238"/>
<path d="M73.485 165.751C73.2072 166.413 72.9765 167.095 72.7946 167.79C72.5919 168.325 72.4938 168.895 72.5056 169.468C72.5056 169.58 72.6582 169.588 72.7144 169.516C73.0336 169.019 73.2771 168.478 73.4369 167.91C73.6697 167.276 73.9185 166.65 74.1353 166.008C74.1693 165.921 74.1677 165.825 74.1309 165.74C74.094 165.655 74.0248 165.588 73.9386 165.554C73.8524 165.52 73.7561 165.522 73.6711 165.558C73.586 165.595 73.5191 165.664 73.485 165.751Z" fill="#263238"/>
<path d="M59.5013 146.251C59.5111 145.822 59.4679 145.393 59.3729 144.975C59.3668 144.963 59.3576 144.953 59.3462 144.946C59.3349 144.939 59.3219 144.936 59.3086 144.936C59.2954 144.936 59.2824 144.939 59.271 144.946C59.2597 144.953 59.2505 144.963 59.2444 144.975C59.1596 145.338 59.1112 145.71 59.0999 146.083C59.0999 146.508 59.0036 146.886 58.9554 147.351C58.8662 148.22 58.716 149.081 58.5059 149.928C58.1152 151.528 57.2997 152.992 56.1457 154.167C54.9948 155.299 53.6305 156.191 52.1318 156.792C50.4732 157.379 48.7818 157.87 47.0663 158.261C47.0493 158.261 47.0329 158.268 47.0209 158.28C47.0088 158.292 47.0021 158.308 47.0021 158.325C47.0021 158.342 47.0088 158.358 47.0209 158.37C47.0329 158.383 47.0493 158.389 47.0663 158.389C48.9658 158.385 50.8466 158.015 52.6055 157.298C54.1646 156.713 55.5839 155.807 56.7719 154.64C57.9578 153.435 58.7907 151.927 59.1802 150.281C59.3767 149.433 59.4897 148.567 59.5174 147.696C59.5401 147.215 59.5347 146.732 59.5013 146.251Z" fill="#263238"/>
<path d="M100.548 67.7561C103.133 70.8789 105.943 79.3161 105.839 81.6201C105.734 83.9241 91.5331 89.1582 89.5262 87.9058C87.5193 86.6535 79.6199 75.4949 79.5477 71.3606C79.4754 67.2263 97.867 64.529 100.548 67.7561Z" fill="#AD6359"/>
<path d="M79.1776 62.024C77.8771 60.6673 73.6706 56.6133 71.8001 58.4436C70.6281 59.5836 73.4539 62.7064 74.642 63.9426C77.0904 66.4794 78.985 70.9669 79.868 73.1585C80.7511 75.3501 84.8854 71.0231 84.8854 71.0231C84.8854 71.0231 82.5734 65.5482 79.1776 62.024Z" fill="#AD6359"/>
<path d="M82.6297 75.607C82.6297 75.607 84.0827 79.5085 86.4509 79.4201C88.8191 79.3318 88.217 75.9762 88.1849 75.7354C88.2572 75.9441 89.6861 79.4924 92.0623 79.1633C94.4385 78.8341 93.4271 75.5347 93.3548 75.326C93.4832 75.4946 95.3136 77.7343 97.0556 77.068C100.058 75.9281 95.5544 70.0919 95.9879 67.531C95.9879 67.531 100.419 67.7799 100.548 67.7558C100.548 67.7558 96.3732 62.1364 92.8812 61.7189C92.373 61.6485 91.856 61.7554 91.4174 62.0215C90.9787 62.2876 90.6452 62.6967 90.4728 63.18C90.4728 63.18 89.3249 61.2132 87.4464 61.4139C86.483 61.5182 85.7927 63.1559 85.7927 63.1559C85.511 62.7236 85.1151 62.3778 84.6489 62.1568C84.1828 61.9357 83.6645 61.8481 83.1515 61.9036C81.8269 62.1203 81.1687 63.774 81.0964 64.4163C80.5345 69.3293 82.6297 75.607 82.6297 75.607Z" fill="#AD6359"/>
<path d="M81.249 63.9669C81.249 63.9669 81.1928 63.9669 81.1848 63.9669C80.461 67.9568 80.9677 72.0725 82.6378 75.7677C82.694 75.8801 82.9028 75.8399 82.8626 75.7035C81.761 71.8897 81.2175 67.9365 81.249 63.9669Z" fill="#263238"/>
<path d="M85.7847 63.0997C85.7847 63.0515 85.7125 63.0515 85.7045 63.0997C84.956 67.5055 85.8103 72.0337 88.1128 75.8638C88.2011 76.0003 88.4098 76.0324 88.3215 75.8638C86.8524 73.1986 85.7044 66.8165 85.7847 63.0997Z" fill="#263238"/>
<path d="M93.628 75.5347C91.4284 71.7617 90.6497 67.6675 90.4651 63.3406C90.4651 63.2844 90.3848 63.2924 90.3688 63.3406C89.8871 65.484 90.2965 68.2214 90.7942 70.3327C91.2205 72.2967 92.1532 74.115 93.4996 75.607C93.5397 75.6712 93.628 75.615 93.628 75.5347Z" fill="#263238"/>
<path d="M82.6287 75.607C82.978 76.3279 83.3917 77.0157 83.8649 77.6621C84.2995 78.3095 84.8978 78.8302 85.5989 79.1713C85.9323 79.2993 86.3012 79.2993 86.6345 79.1713C86.9755 79.0494 87.2795 78.8421 87.5176 78.5692C87.7281 78.2769 87.8753 77.9438 87.95 77.5914C88.0246 77.2389 88.025 76.8748 87.9511 76.5222L87.654 74.7882L88.5371 76.3134C88.9231 76.9954 89.4164 77.6107 89.9981 78.1357C90.2522 78.3936 90.5583 78.5943 90.8961 78.7244C91.2339 78.8546 91.5955 78.9111 91.9569 78.8904C92.2936 78.87 92.613 78.7344 92.8615 78.5064C93.11 78.2783 93.2725 77.9717 93.3216 77.638C93.4148 76.8876 93.3182 76.1258 93.0407 75.4224L92.3262 73.4636L93.6347 75.0691C93.9988 75.5174 94.4167 75.9192 94.879 76.2653C95.3081 76.6048 95.8271 76.8114 96.3722 76.8593C96.618 76.8706 96.8621 76.8135 97.0775 76.6945C97.2929 76.5754 97.4711 76.3991 97.5924 76.185C97.7817 75.6716 97.8234 75.1154 97.7128 74.5794C97.4827 73.3948 97.1606 72.23 96.7495 71.0954C96.5568 70.5174 96.3642 69.9314 96.2036 69.3373C96.0067 68.7541 95.9356 68.1358 95.9949 67.523C96.0056 68.1298 96.1309 68.729 96.3642 69.2892C96.5729 69.8591 96.8057 70.4211 97.0385 70.991C97.5365 72.1265 97.9263 73.3065 98.2025 74.5152C98.3677 75.1647 98.3398 75.8482 98.1222 76.482C97.9654 76.8145 97.7145 77.0936 97.4005 77.2848C97.0866 77.476 96.7235 77.5709 96.3561 77.5577C95.6777 77.5195 95.0263 77.279 94.4857 76.8674C93.9632 76.4933 93.491 76.0535 93.0808 75.5588L93.6749 75.2056C94.021 76.0288 94.1456 76.9283 94.0361 77.8146C93.9627 78.3079 93.7183 78.7596 93.3457 79.091C92.9742 79.4002 92.5183 79.5904 92.0372 79.6369C91.5782 79.6652 91.1184 79.5945 90.6891 79.4297C90.2597 79.2649 89.8708 79.0098 89.5486 78.6816C88.903 78.1028 88.3601 77.4188 87.943 76.6586L88.5291 76.4499C88.6042 76.8901 88.5828 77.3413 88.4664 77.7724C88.3499 78.2034 88.1412 78.6041 87.8547 78.9466C87.5454 79.2691 87.1584 79.5069 86.7308 79.6369C86.2955 79.7713 85.8255 79.7369 85.4143 79.5406C84.676 79.1369 84.0667 78.5331 83.6562 77.7986C83.2318 77.1093 82.8871 76.3741 82.6287 75.607Z" fill="#263238"/>
<path d="M87.8473 86.2441C87.8473 86.2441 72.5384 78.417 78.5351 73.9376C80.3092 72.6049 89.212 69.2574 89.9185 71.0315C90.8337 73.3194 87.3737 75.4147 84.9975 76.378C84.9975 76.378 90.5768 78.3127 90.3921 82.5915C90.3457 83.3757 90.0835 84.1318 89.6344 84.7764C89.1853 85.4209 88.5669 85.9289 87.8473 86.2441Z" fill="#AD6359"/>
<path d="M78.0627 74.3384C78.6945 73.7307 79.4144 73.2219 80.1981 72.8292C80.9767 72.4142 81.7811 72.0496 82.6064 71.7374C84.2456 71.0936 85.9378 70.594 87.6639 70.2443C88.1229 70.148 88.5937 70.121 89.0607 70.164C89.3433 70.1814 89.618 70.2638 89.8635 70.4048C89.991 70.4787 90.105 70.5737 90.2006 70.6858C90.2952 70.7973 90.3687 70.9252 90.4174 71.0631C90.602 71.5575 90.602 72.102 90.4174 72.5964C90.2482 73.0474 89.9979 73.4637 89.6788 73.8246C89.074 74.5091 88.354 75.0823 87.5515 75.5185C86.7795 75.9603 85.9743 76.3415 85.1432 76.6584V76.0885C85.7721 76.334 86.3768 76.6377 86.9494 76.9956C87.5253 77.3428 88.0634 77.749 88.555 78.2078C89.0393 78.6793 89.4506 79.2204 89.7752 79.8133C90.1037 80.3908 90.319 81.0256 90.4094 81.6838C90.2394 81.0579 89.9682 80.4641 89.6066 79.9257C89.2373 79.4042 88.7999 78.9345 88.3061 78.5289C87.8104 78.1147 87.2722 77.7541 86.7005 77.4532C86.145 77.1471 85.5618 76.8944 84.9585 76.6986L84.2119 76.4658L84.9344 76.1286C85.7172 75.7895 86.4762 75.3979 87.2063 74.9565C87.9275 74.5403 88.5779 74.0119 89.133 73.3911C89.3988 73.134 89.5944 72.8131 89.7012 72.459C89.808 72.1049 89.8224 71.7294 89.7431 71.3681C89.5665 70.8062 88.6112 70.8303 87.8004 70.9507C86.9895 71.0711 86.1306 71.2879 85.2877 71.4966C84.4447 71.7053 83.6179 71.9381 82.791 72.203C81.1138 72.6655 79.5186 73.3859 78.0627 74.3384Z" fill="#263238"/>
<path d="M70.2273 97.3223C83.7621 114.028 103.438 124.849 108.295 121.325C113.152 117.801 96.7831 99.3533 96.5022 99.0804C95.5469 98.1652 88.3058 94.4002 75.1564 88.861C62.2557 83.4262 64.1824 89.8645 70.2273 97.3223Z" fill="#AD6359"/>
<path d="M90.4161 95.3873L80.2209 108.794C80.2209 108.794 71.6633 99.9631 67.1356 94.1189C62.6079 88.2747 63.0575 83.731 73.1885 87.504C79.1192 89.6996 84.8777 92.3346 90.4161 95.3873Z" fill="#227E74"/>
<path d="M79.251 105.72C80.4953 103.889 81.7958 102.091 83.1284 100.333C83.7947 99.466 84.437 98.5829 85.1193 97.7239C85.8017 96.865 86.5804 96.006 87.2788 95.1229C87.327 95.0587 87.4233 95.1229 87.3751 95.1872C86.7329 96.0702 86.1549 96.9934 85.5127 97.8765C84.8705 98.7595 84.164 99.6747 83.4817 100.574C82.1383 102.34 80.7549 104.074 79.3313 105.776C79.2912 105.824 79.1788 105.776 79.251 105.72Z" fill="#263238"/>
<path d="M85.1022 102.355L80.2214 108.777C80.2214 108.777 71.6638 99.9469 67.1361 94.1027L66.7026 93.5327L66.518 93.2678L66.237 92.8584C65.9962 92.5052 65.7794 92.16 65.5867 91.8228C65.5145 91.7024 65.4503 91.582 65.3861 91.4616C65.0512 90.8523 64.7821 90.2091 64.5833 89.5429C64.5242 89.3374 64.4786 89.1283 64.4468 88.9168C64.4468 88.8124 64.4468 88.7161 64.4468 88.6198C68.8942 91.7024 79.3303 98.4538 85.1022 102.355Z" fill="#263238"/>
<path d="M85.5108 146.548C85.5108 146.548 39.0541 147.351 38.7812 147.062C38.0587 146.259 47.4431 98.4221 57.1487 88.564C60.5766 85.0799 67.649 86.5008 68.8291 87.0708C71.5505 88.3873 74.1114 91.2292 76.2548 96.4954C80.5416 107.028 86.0968 145.794 85.5108 146.548Z" fill="#227E74"/>
<path opacity="0.1" d="M71.149 88.6444H57.0764L57.1486 88.5641C57.4761 88.2329 57.8396 87.9394 58.2324 87.6891H69.9128C70.35 87.9735 70.7635 88.293 71.149 88.6444ZM72.6984 90.2499H55.7518C55.527 90.547 55.3103 90.8681 55.0935 91.2052H73.4369C73.2041 90.8681 72.9633 90.5711 72.7546 90.2499H72.6984ZM74.4484 92.8108H54.1222C53.9455 93.1239 53.7689 93.445 53.6003 93.7741H74.9943C74.8257 93.445 74.6491 93.1158 74.4645 92.8108H74.4484ZM75.757 95.3797H52.7895L52.332 96.335H76.1824C76.054 96.0058 75.9175 95.6847 75.773 95.3877L75.757 95.3797ZM76.7765 97.9405H51.6255L51.2161 98.8958H77.1056C77.0013 98.5988 76.8969 98.2456 76.7685 97.9405H76.7765ZM77.5793 100.501H50.5659C50.4454 100.823 50.317 101.136 50.1885 101.465H77.8602L77.5793 100.501ZM78.2697 103.062H49.5945C49.4821 103.383 49.3617 103.696 49.2493 104.026H78.5265C78.4249 103.699 78.3446 103.378 78.2857 103.062H78.2697ZM78.8958 105.631H48.6713C48.5589 105.944 48.4545 106.265 48.3502 106.586H79.1126L78.8958 105.631ZM79.4738 108.192H47.8685C47.7642 108.505 47.6678 108.826 47.5635 109.147H79.7387C79.6263 108.826 79.5621 108.505 79.4899 108.232L79.4738 108.192ZM80.0197 110.753H47.0657C46.9614 111.066 46.8651 111.387 46.7687 111.716H80.2766C80.1722 111.395 80.108 111.074 80.0358 110.753H80.0197ZM80.5415 113.314H46.263C46.1666 113.635 46.0703 113.956 45.982 114.277H80.7823L80.5415 113.314ZM81.0392 115.883H45.5084C45.412 116.204 45.3237 116.517 45.2354 116.838H81.2319C81.1757 116.517 81.1195 116.196 81.0553 115.883H81.0392ZM81.5129 118.443H44.7939C44.7056 118.765 44.6173 119.086 44.537 119.399H81.7055C81.6493 119.078 81.5851 118.765 81.5289 118.443H81.5129ZM81.9705 121.004H44.1115C44.0232 121.325 43.9429 121.647 43.8627 121.968H82.1551C82.1069 121.647 82.0507 121.325 81.9865 121.004H81.9705ZM82.428 123.573H43.4452C43.373 123.894 43.2927 124.207 43.2124 124.528H82.5966C82.5485 124.215 82.4923 123.894 82.4441 123.573H82.428ZM82.8455 126.134H42.811C42.7388 126.455 42.6585 126.776 42.5863 127.089H83.0221C82.9739 126.776 82.9177 126.455 82.8615 126.134H82.8455ZM83.2629 128.695H42.2009C42.1287 129.024 42.0564 129.345 41.9761 129.658H83.4315C83.3833 129.337 83.3352 129.024 83.279 128.695H83.2629ZM83.6723 131.256H41.6149C41.5426 131.577 41.4704 131.906 41.3981 132.219H83.8249C83.7767 131.906 83.7285 131.585 83.6884 131.256H83.6723ZM84.0497 133.825H41.0449C40.9807 134.146 40.9085 134.467 40.8442 134.78H84.1941L84.0497 133.825ZM84.4189 136.385H40.499C40.4348 136.715 40.3706 137.028 40.3064 137.341H84.5715C84.5233 137.028 84.4831 136.707 84.435 136.385H84.4189ZM84.7721 138.946H39.9933C39.9184 139.278 39.8541 139.599 39.8006 139.91H84.9166C84.8765 139.597 84.7962 139.275 84.7962 138.946H84.7721ZM85.0932 141.507H39.5036C39.4394 141.844 39.3832 142.165 39.327 142.471H85.2297C85.1976 142.165 85.1575 141.844 85.1093 141.507H85.0932ZM85.3903 144.076H39.038C38.9818 144.421 38.9417 144.742 38.8935 145.031H85.4545C85.4706 144.75 85.4384 144.429 85.4063 144.076H85.3903ZM38.7329 146.637C38.6973 146.777 38.6973 146.923 38.7329 147.062C38.9497 147.279 67.7613 146.838 80.0358 146.637H38.7329Z" fill="#030402"/>
<path d="M59.7987 94.36C56.6679 98.6548 40.6124 116.404 40.0183 118.05C39.4243 119.696 43.1411 123.332 43.0769 124.015C42.8361 126.792 36.8393 145.272 34.439 143.394C31.2761 140.921 17.8858 123.212 19.7803 115.545C21.6749 107.879 52.943 89.4711 57.9042 87.8736C62.8653 86.276 62.8894 90.1213 59.7987 94.36Z" fill="#AD6359"/>
<path d="M47.1876 110.52L38.068 97.7155C38.068 97.7155 48.2713 91.0204 55.0949 88.1625C61.9185 85.3046 65.2822 86.8941 59.0446 95.7166C55.3984 100.889 51.4386 105.832 47.1876 110.52Z" fill="#227E74"/>
<path d="M40.7647 96.8805C42.2097 98.5556 43.6145 100.268 44.9793 102.018C45.6536 102.877 46.3359 103.728 46.9862 104.603C47.6364 105.478 48.2787 106.458 48.961 107.357C49.0092 107.421 48.9129 107.501 48.8647 107.437C48.1743 106.634 47.4357 105.831 46.7454 104.948C46.055 104.065 45.3485 103.182 44.6581 102.299C43.2934 100.549 41.9688 98.759 40.6924 96.9447C40.6443 96.8965 40.7245 96.8323 40.7647 96.8805Z" fill="#263238"/>
<path d="M47.1718 110.584C48.5687 108.73 50.2144 107.076 51.7236 105.318C53.2328 103.56 54.734 101.746 56.171 99.9152C56.171 99.9152 56.2753 99.9152 56.2432 99.9633C55.5769 100.919 54.9267 101.882 54.2282 102.813C53.8831 103.271 53.5218 103.72 53.1525 104.17L53.6904 103.728C54.2407 103.315 54.8114 102.929 55.4003 102.572C55.4003 102.572 55.4645 102.572 55.4003 102.621C54.8894 103.093 54.3535 103.538 53.7947 103.953C53.3934 104.258 52.992 104.539 52.5665 104.82L51.9243 105.623C50.5231 107.432 48.9621 109.111 47.2601 110.64C47.212 110.713 47.1237 110.64 47.1718 110.584Z" fill="#263238"/>
<path d="M42.2899 150.41C44.4333 148.957 41.4871 147.255 41.4871 147.255C41.4871 147.255 46.3038 148.684 47.9093 146.332C49.5149 143.98 45.8542 142.133 45.5973 141.989C45.8542 142.069 50.3177 143.257 51.7145 140.729C53.1113 138.2 49.1938 136.787 48.9369 136.715C49.2018 136.715 52.6778 136.562 53.304 134.395C54.3717 130.678 44.3851 130.244 42.2337 127.972C42.2337 127.972 43.197 123.059 43.2773 122.923C42.6314 124.026 41.629 124.875 40.4355 125.331C38.276 125.941 36.3333 126.295 35.4583 127.33C35.05 127.783 34.7984 128.356 34.7406 128.963C34.6827 129.57 34.8218 130.18 35.1372 130.702C35.1372 130.702 32.4077 130.389 31.2437 132.348C30.6496 133.351 31.7334 135.206 31.7334 135.206C31.1157 135.161 30.4978 135.288 29.9471 135.571C29.3964 135.854 28.9341 136.283 28.6106 136.811C27.864 138.256 29.0682 139.886 29.0682 139.886C29.0682 139.886 26.8846 140.688 26.6037 142.422C26.0658 145.898 37.698 153.509 42.2899 150.41Z" fill="#AD6359"/>
<path d="M29.2604 140.182C29.2604 140.182 29.1721 140.182 29.2042 140.239C32.5318 143.823 36.8719 146.31 41.6472 147.367C41.7998 147.367 41.9122 147.158 41.7516 147.094C37.275 145.408 33.0673 143.079 29.2604 140.182Z" fill="#263238"/>
<path d="M31.7006 135.173C31.6953 135.169 31.6892 135.166 31.6828 135.164C31.6763 135.162 31.6695 135.161 31.6628 135.162C31.6561 135.163 31.6496 135.165 31.6437 135.168C31.6377 135.171 31.6325 135.176 31.6283 135.181C31.6241 135.186 31.621 135.192 31.6191 135.199C31.6172 135.205 31.6166 135.212 31.6174 135.219C31.6181 135.226 31.6202 135.232 31.6234 135.238C31.6267 135.244 31.6311 135.249 31.6363 135.253C35.346 139.165 40.3313 141.622 45.693 142.181C45.8776 142.181 46.0622 142.021 45.8455 141.989C42.249 141.443 35.2328 137.935 31.7006 135.173Z" fill="#263238"/>
<path d="M49.3699 136.594C44.1358 136 39.6162 133.784 35.3053 130.846C35.2491 130.846 35.2009 130.886 35.233 130.934C36.951 132.949 39.8971 134.539 42.2974 135.582C44.5016 136.591 46.9321 137.004 49.3458 136.778C49.4743 136.77 49.4743 136.61 49.3699 136.594Z" fill="#263238"/>
<path d="M28.9651 139.885C28.529 139.446 28.2232 138.895 28.0815 138.293C27.9398 137.69 27.9677 137.061 28.1623 136.473C28.4137 135.92 28.8553 135.476 29.4066 135.221C30.0637 134.994 30.7664 134.93 31.4537 135.036C31.0705 134.496 30.86 133.853 30.85 133.191C30.8399 132.529 31.0308 131.879 31.3975 131.328C31.8086 130.856 32.3813 130.555 33.003 130.485C33.7125 130.416 34.4281 130.443 35.1304 130.565C34.8378 130.22 34.6296 129.813 34.5223 129.374C34.415 128.935 34.4116 128.477 34.5122 128.036C34.6451 127.558 34.8888 127.117 35.2235 126.75C35.5582 126.384 35.9746 126.101 36.4389 125.925C37.5312 125.529 38.6651 125.26 39.8186 125.122C40.4107 125.033 40.9901 124.874 41.5446 124.648C42.1421 124.375 42.643 123.927 42.9815 123.364C43.0458 123.268 43.0458 123.364 42.9815 123.452C42.7567 123.835 42.469 124.177 42.1306 124.464C41.7791 124.77 41.3875 125.026 40.9666 125.226C39.9216 125.621 38.8481 125.935 37.7555 126.166C36.7976 126.421 35.951 126.985 35.3471 127.771C35.0712 128.187 34.916 128.672 34.899 129.171C34.882 129.669 35.0038 130.163 35.2508 130.597C35.2508 130.597 35.2508 130.701 35.1785 130.693C34.5376 130.691 33.8986 130.766 33.276 130.918C32.7595 131.042 32.2939 131.322 31.9434 131.721C31.6186 132.23 31.4328 132.815 31.4046 133.417C31.3765 134.02 31.5069 134.62 31.7828 135.157C31.0905 135.203 30.4128 135.377 29.7839 135.671C29.3756 135.922 29.0471 136.284 28.8366 136.714C28.5962 137.21 28.4981 137.763 28.5534 138.312C28.6087 138.86 28.8151 139.383 29.1497 139.821C29.1528 139.834 29.1528 139.848 29.1497 139.861C29.1497 139.861 28.4513 140.15 28.4192 140.15C28.5955 140.051 28.7778 139.962 28.9651 139.885Z" fill="#263238"/>
<path d="M68.8134 94.1911C66.2606 95.1303 61.2674 91.6543 59.0918 88.6198C58.9473 88.4111 58.8028 79.3798 58.5941 77.5977C58.5459 77.2284 70.13 78.9785 70.13 78.9785C69.7597 81.2873 69.6734 83.6328 69.8731 85.9626C69.9052 86.2195 71.278 93.292 68.8134 94.1911Z" fill="#AD6359"/>
<path d="M70.13 78.9785C70.13 78.9785 70.0016 79.7251 69.8972 80.833C66.6861 84.7746 61.5323 85.192 58.9152 85.1037C58.8269 82.302 58.7225 78.6815 58.5941 77.5978C58.5459 77.2365 70.13 78.9785 70.13 78.9785Z" fill="#263238"/>
<path d="M58.6425 58.3556C58.6425 58.3556 54.9497 59.7845 54.1951 63.4773C53.4405 67.17 54.1951 71.0876 54.5001 71.2883C54.8052 71.489 58.6425 58.3556 58.6425 58.3556Z" fill="#263238"/>
<path d="M73.5581 63.1241C74.5054 67.1942 71.6314 78.5856 68.613 80.9618C64.2459 84.4138 57.4704 84.3174 54.6286 79.1556C51.8831 74.1543 55.897 59.3832 59.2285 57.2558C64.1255 54.133 72.1372 57.1033 73.5581 63.1241Z" fill="#AD6359"/>
<path d="M62.102 69.5221C62.102 69.5221 62.1582 69.5702 62.1502 69.6023C61.9896 70.4051 61.9334 71.3123 62.6078 71.6976C62.6078 71.6976 62.6078 71.7458 62.6078 71.7377C61.7408 71.4648 61.821 70.2365 62.102 69.5221Z" fill="#263238"/>
<path d="M62.9454 68.8157C64.2378 68.9361 63.8927 71.505 62.7045 71.3926C61.5164 71.2802 61.8697 68.7113 62.9454 68.8157Z" fill="#263238"/>
<path d="M57.6227 68.7271C57.6227 68.7271 57.5585 68.7272 57.5505 68.7914C57.4782 69.5941 57.2615 70.4852 56.5069 70.6618V70.71C57.406 70.694 57.6789 69.4898 57.6227 68.7271Z" fill="#263238"/>
<path d="M57.0221 67.8039C55.7537 67.547 55.3283 70.0998 56.5083 70.3407C57.6884 70.5815 58.0818 68.0206 57.0221 67.8039Z" fill="#263238"/>
<path d="M61.9268 76.1611C61.7181 76.3297 61.5013 76.5705 61.2123 76.5705C60.9153 76.5397 60.6281 76.4467 60.3694 76.2976C60.4678 76.4653 60.6105 76.6027 60.7819 76.6948C60.9532 76.7868 61.1466 76.8299 61.3408 76.8194C61.51 76.7984 61.6681 76.724 61.7923 76.6071C61.9164 76.4902 62.0001 76.3368 62.0312 76.1691C62.0312 76.1691 61.9589 76.121 61.9268 76.1611Z" fill="#263238"/>
<path d="M58.2093 72.5005C58.2093 72.5005 57.8722 73.6565 57.7919 74.2184C58.8833 74.378 59.9459 74.6943 60.9468 75.1577C61.1796 75.27 61.2117 75.0693 60.9468 74.8606C60.1999 74.2539 59.2884 73.8848 58.3298 73.801C58.3298 73.6404 58.8837 72.0268 58.7954 72.0027C58.3618 71.9778 57.9269 72.0129 57.5029 72.1071C58.1291 69.6988 59.1085 67.3547 59.7346 64.8821C59.7346 64.7938 59.6303 64.7456 59.5901 64.8179C58.4318 67.2697 57.5176 69.8295 56.8607 72.4603C56.7563 72.8136 57.9685 72.5647 58.2093 72.5005Z" fill="#263238"/>
<path d="M63.9251 67.9402C63.6201 67.7475 63.3792 67.5147 63.1223 67.2979C62.8655 67.0812 62.5283 66.8805 62.4079 66.4952C62.3821 66.3792 62.3967 66.2579 62.4493 66.1513C62.5018 66.0448 62.5892 65.9593 62.6969 65.9091C62.9227 65.8352 63.1643 65.8238 63.3961 65.8761C63.6279 65.9284 63.8412 66.0425 64.0134 66.2062C64.4189 66.4784 64.7058 66.8945 64.8162 67.3702C64.8374 67.482 64.8246 67.5975 64.7795 67.702C64.7344 67.8065 64.6591 67.895 64.5633 67.9563C64.4675 68.0176 64.3555 68.0489 64.2417 68.046C64.128 68.0431 64.0177 68.0062 63.9251 67.9402Z" fill="#263238"/>
<path d="M56.4595 64.978C56.8127 64.9218 57.1338 64.8255 57.479 64.7372C57.8509 64.7054 58.2013 64.5499 58.4745 64.2956C58.5461 64.2009 58.5849 64.0853 58.5849 63.9665C58.5849 63.8477 58.5461 63.7321 58.4745 63.6374C58.2985 63.4772 58.083 63.3667 57.8503 63.3174C57.6175 63.268 57.3757 63.2814 57.1499 63.3564C56.6675 63.4371 56.2324 63.6947 55.9297 64.0789C55.8686 64.1694 55.8344 64.2754 55.831 64.3845C55.8277 64.4937 55.8554 64.6016 55.9108 64.6957C55.9662 64.7898 56.0472 64.8662 56.1443 64.9162C56.2414 64.9662 56.3507 64.9876 56.4595 64.978Z" fill="#263238"/>
<path d="M71.6641 72.8536C69.3039 72.6208 70.5884 62.2088 70.5884 62.2088C69.1315 62.7051 67.6074 62.9758 66.0687 63.0116C64.5142 62.9569 62.9709 62.7253 61.4688 62.3212C61.1477 62.2008 65.4105 60.9966 65.4105 60.9966C65.4105 60.9966 54.9262 61.9118 54.573 59.937C54.4445 59.2546 56.3953 53.0411 65.0974 53.4345C71.5196 53.7235 74.5139 60.4347 74.5139 60.4347C74.5139 60.4347 77.6367 63.9107 77.0989 65.4842C76.1837 68.2457 74.1687 73.1025 71.6641 72.8536Z" fill="#263238"/>
<path d="M70.2343 72.91C70.2343 72.91 73.1644 69.4099 74.778 70.5016C76.3916 71.5934 73.9752 76.8034 71.904 77.3734C71.646 77.4631 71.3725 77.4998 71.1 77.4813C70.8274 77.4629 70.5614 77.3896 70.3178 77.2659C70.0743 77.1423 69.8581 76.9708 69.6824 76.7616C69.5066 76.5525 69.3749 76.3101 69.295 76.0488L70.2343 72.91Z" fill="#AD6359"/>
<path d="M109.339 120.723C115.857 115.69 109.628 90.1373 105.838 80.7288C104.723 77.9592 87.0214 83.1371 87.8483 86.2438C92.5766 103.817 102.202 126.238 109.339 120.723Z" fill="#AD6359"/>
<path d="M90.7771 95.8854L92.7279 100.702C93.3942 102.308 94.0444 103.913 94.7669 105.519C95.4894 107.124 96.1878 108.674 96.9264 110.239C97.6649 111.804 98.4838 113.338 99.2865 114.879C98.2709 113.465 97.3458 111.987 96.517 110.456C95.7142 108.922 94.9114 107.349 94.213 105.76C93.5146 104.17 92.8724 102.548 92.2944 100.895C91.7164 99.241 91.2186 97.5792 90.7771 95.8854Z" fill="#263238"/>
<path d="M89.615 45.094C89.6925 45.9969 89.5006 46.9024 89.0636 47.6962C88.6266 48.4901 87.9642 49.1366 87.1599 49.5541C86.3557 49.9716 85.4457 50.1414 84.5451 50.0419C83.6444 49.9425 82.7934 49.5784 82.0995 48.9955C81.4057 48.4127 80.9002 47.6372 80.6469 46.7672C80.3935 45.8972 80.4038 44.9716 80.6763 44.1074C80.9487 43.2432 81.4713 42.4791 82.1778 41.9117C82.8843 41.3443 83.7432 40.9991 84.6459 40.9196C85.2464 40.8667 85.8514 40.9328 86.4263 41.1141C87.0013 41.2953 87.5348 41.5882 87.9964 41.976C88.458 42.3638 88.8385 42.8388 89.1163 43.3738C89.394 43.9088 89.5635 44.4934 89.615 45.094Z" fill="white"/>
<path d="M89.614 45.0938C89.7134 46.323 89.3375 47.5435 88.5639 48.5038C87.7902 49.4641 86.6777 50.0911 85.4556 50.2557C84.7901 50.3892 84.1038 50.3806 83.4418 50.2304C82.7799 50.0801 82.1571 49.7917 81.6145 49.3839C81.0718 48.9762 80.6214 48.4583 80.2929 47.8643C79.9644 47.2703 79.7651 46.6136 79.7082 45.9372C79.6513 45.2608 79.7379 44.58 79.9625 43.9394C80.1871 43.2989 80.5446 42.713 81.0115 42.2203C81.4783 41.7275 82.0441 41.339 82.6716 41.0803C83.2992 40.8215 83.9743 40.6983 84.6528 40.7187C85.882 40.6767 87.0807 41.1065 88.0032 41.92C88.9256 42.7335 89.5019 43.869 89.614 45.0938ZM89.614 45.0938C89.5626 44.5033 89.3923 43.9293 89.1132 43.4063C88.834 42.8834 88.4519 42.4224 87.9899 42.0511C87.5278 41.6798 86.9953 41.4059 86.4246 41.2459C85.8538 41.0859 85.2566 41.0431 84.6688 41.1201C83.5452 41.2645 82.5208 41.8376 81.8098 42.7196C81.0987 43.6017 80.7562 44.7244 80.8536 45.8531C80.951 46.9818 81.4809 48.0292 82.3326 48.7764C83.1842 49.5235 84.2917 49.9126 85.4235 49.8623C86.0162 49.8374 86.5978 49.6927 87.1331 49.4368C87.6683 49.181 88.1462 48.8193 88.5378 48.3737C88.9295 47.928 89.2267 47.4076 89.4117 46.8439C89.5966 46.2802 89.6655 45.6849 89.614 45.0938Z" fill="#263238"/>
<path d="M79.6447 53.5471C79.6873 54.0501 79.5798 54.5544 79.3358 54.9964C79.0919 55.4383 78.7223 55.798 78.274 56.0299C77.8256 56.2619 77.3186 56.3557 76.8169 56.2995C76.3153 56.2434 75.8415 56.0397 75.4556 55.7144C75.0696 55.389 74.7888 54.9565 74.6486 54.4716C74.5084 53.9866 74.5151 53.471 74.6679 52.9899C74.8207 52.5088 75.1127 52.0837 75.507 51.7685C75.9013 51.4533 76.3802 51.2621 76.8831 51.219C77.2176 51.1893 77.5546 51.2261 77.8747 51.3272C78.1949 51.4283 78.4919 51.5918 78.7485 51.8082C79.0052 52.0246 79.2166 52.2896 79.3704 52.5881C79.5242 52.8865 79.6174 53.2125 79.6447 53.5471Z" fill="white"/>
<path d="M79.6437 53.5474C79.6888 54.0983 79.567 54.65 79.2943 55.1308C79.0215 55.6116 78.6103 55.9991 78.1143 56.243C77.6182 56.4869 77.0603 56.5758 76.513 56.4982C75.9657 56.4207 75.4544 56.1802 75.0457 55.8081C74.637 55.436 74.3497 54.9494 74.2212 54.4118C74.0928 53.8742 74.1291 53.3104 74.3255 52.7937C74.5219 52.277 74.8693 51.8313 75.3224 51.5148C75.7755 51.1982 76.3134 51.0253 76.8661 51.0187C77.5616 51.0159 78.2329 51.2741 78.7472 51.7423C79.2615 52.2105 79.5814 52.8547 79.6437 53.5474ZM79.6437 53.5474C79.6173 53.2217 79.5233 52.9051 79.3677 52.6177C79.2121 52.3304 78.9983 52.0786 78.74 51.8784C78.4817 51.6783 78.1845 51.5341 77.8674 51.4552C77.5503 51.3763 77.2202 51.3643 76.8982 51.42C76.4462 51.4965 76.0262 51.703 75.6896 52.0143C75.353 52.3256 75.1144 52.7281 75.0028 53.1728C74.8912 53.6175 74.9116 54.0851 75.0614 54.5184C75.2113 54.9517 75.484 55.3319 75.8464 55.6128C76.2088 55.8936 76.6452 56.0627 77.1022 56.0996C77.5591 56.1365 78.017 56.0395 78.4197 55.8204C78.8225 55.6014 79.1527 55.2698 79.3701 54.8661C79.5874 54.4624 79.6825 54.0042 79.6437 53.5474Z" fill="#263238"/>
<path d="M123.861 23.7717C124.287 27.2959 123.297 30.8452 121.109 33.6402C118.92 36.4353 115.712 38.2476 112.189 38.6792C109.87 38.9679 107.516 38.6383 105.365 37.7239C104.316 39.097 102.965 40.2097 101.416 40.9756C99.8667 41.7415 98.1621 42.1399 96.4342 42.1399C94.7062 42.1399 93.0016 41.7415 91.4526 40.9756C89.9037 40.2097 88.5523 39.097 87.5033 37.7239C87.0097 37.8698 86.5049 37.9745 85.9941 38.037C84.246 38.2504 82.4736 37.9523 80.8917 37.1787C79.3097 36.4051 77.986 35.1892 77.0811 33.6785C76.1762 32.1678 75.7289 30.427 75.7934 28.6672C75.8579 26.9074 76.4314 25.2041 77.4445 23.7636C75.4718 21.2538 74.4606 18.1217 74.5934 14.9321C74.7262 11.7425 75.9942 8.70533 78.1687 6.36811C80.3432 4.03089 83.2811 2.54744 86.4529 2.18523C89.6246 1.82301 92.8214 2.60587 95.4668 4.39265C96.7076 2.8498 98.334 1.66211 100.181 0.949804C102.029 0.237495 104.031 0.0258424 105.987 0.336266C107.942 0.64669 109.781 1.46817 111.317 2.71757C112.853 3.96697 114.031 5.59995 114.733 7.45123C115.202 7.29348 115.687 7.18585 116.178 7.13012C117.663 6.95221 119.166 7.23096 120.488 7.92924C121.81 8.62751 122.888 9.71213 123.577 11.0385C124.267 12.3649 124.536 13.87 124.349 15.3532C124.162 16.8364 123.526 18.2273 122.528 19.3403C123.23 20.7274 123.681 22.2276 123.861 23.7717Z" fill="white"/>
<path d="M123.862 23.772C124.279 27.295 123.302 30.8415 121.14 33.6542C120.415 34.5703 119.579 35.3928 118.652 36.1026C116.773 37.5248 114.555 38.4326 112.218 38.7367C109.882 39.0408 107.506 38.7305 105.326 37.8366H105.454C104.399 39.236 103.035 40.3727 101.469 41.158C99.902 41.9434 98.1751 42.3562 96.4227 42.3643C94.6621 42.3705 92.9235 41.9723 91.3411 41.2003C89.7595 40.4148 88.3742 39.2845 87.2871 37.8928L87.5761 37.9891C85.7083 38.5532 83.7116 38.5251 81.8603 37.9089C80.0006 37.2951 78.3804 36.1129 77.2283 34.5292C76.6645 33.733 76.2183 32.8597 75.9038 31.9362C75.6029 31.0073 75.4433 30.0386 75.4301 29.0623C75.4127 27.0945 76.0074 25.17 77.132 23.5552V24.0048C75.0787 21.4341 74.0314 18.2038 74.1858 14.9174C74.2729 12.4693 75.0173 10.0898 76.3409 8.02854C77.6645 5.96731 79.5185 4.30032 81.7084 3.20252C83.8982 2.10472 86.3432 1.61658 88.7867 1.78931C91.2302 1.96205 93.5822 2.78929 95.5958 4.18424L95.2426 4.23241C96.5175 2.6631 98.185 1.45918 100.076 0.742913C101.967 0.0266498 104.013 -0.176431 106.008 0.154302C107.99 0.483252 109.851 1.32976 111.402 2.60826C112.952 3.88676 114.138 5.55194 114.838 7.43548L114.734 7.37929C116.303 6.86912 117.996 6.8917 119.551 7.44351C120.694 7.85226 121.718 8.53668 122.533 9.43611C123.348 10.3355 123.929 11.4222 124.223 12.5997C124.518 13.7772 124.517 15.0092 124.222 16.1865C123.926 17.3638 123.345 18.4499 122.529 19.3487C123.232 20.7326 123.683 22.2303 123.862 23.772ZM123.862 23.772C123.672 22.2284 123.21 20.7307 122.497 19.3487C123.588 18.1511 124.249 16.6241 124.375 15.009C124.502 13.3939 124.087 11.7827 123.195 10.4298C122.314 9.0807 121.01 8.06248 119.487 7.53504C117.964 7.0076 116.309 7.00082 114.782 7.51576H114.702V7.43548C113.989 5.61288 112.813 4.00791 111.29 2.77938C109.766 1.55298 107.943 0.754929 106.008 0.467384C104.082 0.179736 102.114 0.401147 100.3 1.10961C98.4973 1.82539 96.9159 3.00522 95.7163 4.52943L95.5637 4.7221L95.355 4.5776C92.771 2.8554 89.6584 2.10896 86.5743 2.47186C83.4902 2.83475 80.636 4.28329 78.5222 6.55826C76.4085 8.83323 75.1734 11.7861 75.0378 14.8885C74.9022 17.9909 75.8751 21.0403 77.7822 23.491L77.9589 23.7158L77.7903 23.9486C76.7415 25.4291 76.1803 27.1997 76.1847 29.0141C76.1975 29.9157 76.3408 30.8108 76.6102 31.6713C76.8917 32.5301 77.3003 33.3419 77.8224 34.0796C78.8847 35.5654 80.3817 36.6851 82.1069 37.2847C83.8322 37.8842 85.7009 37.934 87.4557 37.4272L87.6403 37.379L87.7447 37.5235C88.7662 38.8686 90.0778 39.9662 91.582 40.7346C93.8721 41.8948 96.4946 42.2216 98.9994 41.6591C101.504 41.0967 103.735 39.6799 105.309 37.652L105.366 37.5797H105.446C107.585 38.505 109.931 38.8485 112.245 38.5752C114.574 38.289 116.787 37.4008 118.668 35.9983C119.594 35.3019 120.43 34.4929 121.156 33.5899C121.869 32.6661 122.465 31.6577 122.93 30.5875C123.822 28.4335 124.142 26.0861 123.862 23.772Z" fill="#263238"/>
<path d="M100.973 24.1897C100.956 23.2127 101.131 22.2418 101.487 21.3318C101.934 20.3768 102.689 19.5995 103.63 19.1242C103.959 18.9235 104.353 18.7067 104.834 18.4579C105.322 18.2011 105.787 17.903 106.223 17.5668C106.672 17.2254 107.063 16.8133 107.379 16.3466C107.696 15.8717 107.861 15.3118 107.853 14.741C107.861 14.3243 107.77 13.9116 107.588 13.5368C107.423 13.2013 107.191 12.9034 106.906 12.6618C106.616 12.4201 106.28 12.2399 105.918 12.132C105.547 12.0115 105.16 11.9492 104.77 11.9474C104.324 11.9391 103.881 12.0238 103.47 12.1962C103.093 12.3512 102.739 12.5564 102.418 12.8063C102.118 13.0574 101.848 13.343 101.615 13.6573C101.385 13.9404 101.173 14.238 100.981 14.5483L98.1553 12.5976C98.4293 11.9457 98.809 11.3436 99.2792 10.8154C99.7315 10.2947 100.262 9.84775 100.853 9.49086C101.455 9.13586 102.103 8.86572 102.779 8.68808C103.479 8.50364 104.199 8.41188 104.923 8.41513C105.738 8.41936 106.549 8.53826 107.331 8.76836C108.119 9.00333 108.852 9.39063 109.49 9.9083C110.148 10.4511 110.679 11.1304 111.048 11.8992C111.464 12.8103 111.667 13.804 111.642 14.8052C111.652 15.4238 111.571 16.0405 111.401 16.6356C111.247 17.1515 111.011 17.6394 110.703 18.0806C110.399 18.5156 110.04 18.9096 109.635 19.2526C109.195 19.6213 108.728 19.9567 108.238 20.2561L106.938 21.0027C106.521 21.2344 106.126 21.5031 105.758 21.8054C105.402 22.0828 105.1 22.4229 104.867 22.8089C104.625 23.228 104.505 23.7062 104.521 24.1897H100.973ZM101.037 31.7518V27.2723H104.634V31.7518H101.037Z" fill="#227E74"/>
<path d="M92.9385 15.8084C93.1608 16.7591 93.1881 17.7449 93.0188 18.7064C92.7898 19.7287 92.2244 20.6446 91.4132 21.3074C91.1322 21.5643 90.787 21.8613 90.3696 22.2065C89.945 22.5586 89.5502 22.9452 89.1895 23.3625C88.8217 23.7878 88.5261 24.2705 88.3145 24.7915C88.1024 25.3219 88.0576 25.9046 88.186 26.4612C88.2589 26.8681 88.4297 27.2511 88.6838 27.5771C88.9141 27.8745 89.2039 28.1205 89.5347 28.2996C89.8679 28.4781 90.2339 28.5874 90.6104 28.6207C90.9995 28.6561 91.3916 28.6344 91.7744 28.5565C92.2114 28.4727 92.6266 28.3006 92.9947 28.0507C93.3305 27.8236 93.6355 27.5537 93.9018 27.248C94.1588 26.9413 94.3772 26.6043 94.552 26.2445C94.7162 25.9188 94.861 25.5838 94.9856 25.241L98.1485 26.5736C98.0191 27.2687 97.772 27.9365 97.418 28.5485C97.0746 29.1463 96.6414 29.6878 96.1335 30.154C95.6182 30.6271 95.0401 31.0269 94.4156 31.3421C93.7701 31.6666 93.0844 31.9042 92.3765 32.0486C91.5697 32.2201 90.7419 32.2715 89.92 32.2011C89.1017 32.1398 88.3042 31.9131 87.5759 31.5348C86.8246 31.1427 86.1651 30.5955 85.6412 29.9292C84.6934 28.6014 84.2262 26.9903 84.3167 25.3614C84.3612 24.8277 84.4913 24.3045 84.702 23.8121C84.9082 23.3237 85.1781 22.8648 85.5048 22.4474C85.8587 21.9945 86.245 21.5679 86.6608 21.171C87.03 20.8338 87.4073 20.4966 87.7766 20.1755C88.1335 19.857 88.4588 19.5049 88.748 19.1239C89.0302 18.7762 89.2502 18.3824 89.3982 17.9598C89.5447 17.4997 89.5613 17.008 89.4464 16.5389L92.9385 15.8084ZM91.3329 8.42286L92.2561 12.806L88.7319 13.5446L87.8087 9.16142L91.3329 8.42286Z" fill="#227E74"/>
</svg>
