<svg width="24" height="24" viewBox="0 0 24 24" fill="none" xmlns="http://www.w3.org/2000/svg">
<path d="M12.0039 11.5C11.3409 11.5 10.705 11.2366 10.2361 10.7678C9.7673 10.2989 9.50391 9.66304 9.50391 9C9.50391 8.33696 9.7673 7.70107 10.2361 7.23223C10.705 6.76339 11.3409 6.5 12.0039 6.5C12.6669 6.5 13.3028 6.76339 13.7717 7.23223C14.2405 7.70107 14.5039 8.33696 14.5039 9C14.5039 9.3283 14.4392 9.65339 14.3136 9.95671C14.188 10.26 14.0038 10.5356 13.7717 10.7678C13.5395 10.9999 13.2639 11.1841 12.9606 11.3097C12.6573 11.4353 12.3322 11.5 12.0039 11.5ZM12.0039 2C10.1474 2 8.36691 2.7375 7.05416 4.05025C5.7414 5.36301 5.00391 7.14348 5.00391 9C5.00391 14.25 12.0039 22 12.0039 22C12.0039 22 19.0039 14.25 19.0039 9C19.0039 7.14348 18.2664 5.36301 16.9537 4.05025C15.6409 2.7375 13.8604 2 12.0039 2Z" fill="black"/>
</svg>
