<svg width="449" height="523" viewBox="0 0 449 523" fill="none" xmlns="http://www.w3.org/2000/svg">
<path d="M324.243 234.471C324.243 179.458 279.602 134.861 224.535 134.86C169.48 134.86 124.94 179.259 124.826 234.26C124.757 268.051 141.531 297.93 167.229 315.99C182.794 326.929 191.938 344.852 191.938 363.863V364.092H257.132V363.865C257.132 344.637 266.667 326.796 282.341 315.637C307.703 297.579 324.243 267.956 324.243 234.471Z" fill="#FEDF30"/>
<path d="M224.536 134.861C220.764 134.861 217.042 135.077 213.379 135.483C263.203 141.016 301.951 183.22 301.951 234.471C301.951 267.956 285.411 297.58 260.049 315.637C244.375 326.797 234.84 344.637 234.84 363.865V364.093H257.133V363.865C257.133 344.637 266.668 326.796 282.342 315.637C307.704 297.58 324.244 267.956 324.244 234.471C324.244 179.459 279.603 134.862 224.536 134.861Z" fill="#FAC600"/>
<path d="M239.636 445.732H209.434C205.905 445.732 203.045 442.871 203.045 439.343V421.559H246.025V439.343C246.025 442.871 243.165 445.732 239.636 445.732Z" fill="#BAAFB9"/>
<path d="M223.732 421.559V439.343C223.732 442.871 220.872 445.732 217.343 445.732H239.636C243.165 445.732 246.025 442.871 246.025 439.343V421.559H223.732Z" fill="#AA9EA9"/>
<path d="M221.015 303.352L189.009 271.356C168.578 250.932 168.578 217.812 189.009 197.389L221.015 165.393C222.959 163.45 226.11 163.45 228.054 165.393L260.06 197.389C280.49 217.812 280.49 250.932 260.06 271.356L228.054 303.352C226.11 305.295 222.959 305.295 221.015 303.352Z" fill="#22B37F"/>
<path d="M257.131 392.826H191.937C186.642 392.826 182.35 388.538 182.35 383.249V373.671C182.35 368.381 186.642 364.093 191.937 364.093H257.131C262.426 364.093 266.719 368.381 266.719 373.671V383.249C266.719 388.538 262.426 392.826 257.131 392.826Z" fill="#BAAFB9"/>
<path d="M257.142 364.093H244.427C244.427 373.806 236.553 381.68 226.84 381.68H182.352V383.239C182.352 388.533 186.644 392.826 191.939 392.826H257.133C262.428 392.826 266.721 388.534 266.721 383.239V373.671C266.72 368.38 262.432 364.093 257.142 364.093Z" fill="#AA9EA9"/>
<path d="M257.131 421.56H191.937C186.642 421.56 182.35 417.271 182.35 411.982V402.404C182.35 397.115 186.642 392.826 191.937 392.826H257.131C262.426 392.826 266.719 397.115 266.719 402.404V411.982C266.719 417.272 262.426 421.56 257.131 421.56Z" fill="#BAAFB9"/>
<path d="M257.142 392.826H244.427C244.427 402.539 236.553 410.413 226.84 410.413H182.352V411.972C182.352 417.267 186.644 421.56 191.939 421.56H257.133C262.428 421.56 266.721 417.268 266.721 411.972V402.404C266.72 397.115 262.432 392.826 257.142 392.826Z" fill="#AA9EA9"/>
<path d="M154.057 123.446C155.611 126.14 159.044 127.002 161.671 125.486C164.336 123.947 165.249 120.538 163.71 117.873L150.381 94.7854C148.842 92.1192 145.433 91.2059 142.768 92.7456C140.103 94.2846 139.189 97.6932 140.728 100.359L154.057 123.446ZM93.2321 228.798H66.5733C63.4953 228.798 61 231.294 61 234.372C61 237.449 63.4953 239.945 66.5733 239.945H93.2321C96.3101 239.945 98.8054 237.449 98.8054 234.372C98.8054 231.294 96.3101 228.798 93.2321 228.798ZM224.536 108.641C227.614 108.641 230.109 106.146 230.109 103.068V76.4092C230.109 73.3313 227.614 70.8359 224.536 70.8359C221.458 70.8359 218.962 73.3313 218.962 76.4092V103.068C218.962 106.146 221.458 108.641 224.536 108.641ZM287.401 125.486C290.022 126.999 293.459 126.141 295.014 123.446L308.344 100.359C309.883 97.6932 308.969 94.2846 306.304 92.7456C303.638 91.2052 300.23 92.1199 298.691 94.7854L285.361 117.873C283.821 120.538 284.734 123.947 287.401 125.486ZM382.498 228.798H355.839C352.761 228.798 350.266 231.294 350.266 234.372C350.266 237.449 352.761 239.945 355.839 239.945H382.498C385.576 239.945 388.071 237.449 388.071 234.372C388.071 231.294 385.576 228.798 382.498 228.798ZM366.162 152.603C364.623 149.938 361.215 149.025 358.549 150.564L335.461 163.893C332.795 165.432 331.882 168.841 333.421 171.506C334.976 174.199 338.41 175.066 341.034 173.546L364.122 160.216C366.787 158.678 367.701 155.27 366.162 152.603ZM224.536 129.287C224.535 129.287 224.536 129.287 224.533 129.287C211.009 129.287 197.842 131.806 185.402 136.774C182.544 137.915 181.152 141.158 182.293 144.017C183.435 146.876 186.675 148.267 189.536 147.126C200.656 142.685 212.43 140.434 224.533 140.434H224.536C276.442 140.435 318.671 182.62 318.671 234.471C318.671 264.814 303.881 293.459 279.108 311.097C263.346 322.319 253.393 339.758 251.793 358.52H230.109V308.776C230.778 308.361 231.415 307.874 231.995 307.294L264.002 275.298C274.936 264.368 280.958 249.833 280.958 234.373C280.958 218.912 274.936 204.378 264.002 193.447L231.996 161.452C227.882 157.339 221.189 157.339 217.076 161.452L185.07 193.448C174.136 204.378 168.114 218.913 168.114 234.374C168.114 249.834 174.136 264.368 185.07 275.299L217.076 307.295C217.657 307.875 218.294 308.362 218.962 308.777V358.52H197.285C195.721 339.646 185.937 322.326 170.435 311.432C145.303 293.77 130.337 264.926 130.4 234.273C130.464 203.18 145.851 174.176 171.561 156.687C174.106 154.955 174.766 151.489 173.035 148.944C171.304 146.4 167.838 145.739 165.292 147.471C136.537 167.031 119.325 199.472 119.253 234.25C119.182 268.538 135.92 300.801 164.025 320.552C176.872 329.581 184.959 343.976 186.194 359.658C180.675 361.925 176.777 367.35 176.777 373.672V383.25C176.777 386.881 178.064 390.216 180.203 392.828C178.064 395.44 176.777 398.775 176.777 402.406V411.984C176.777 420.339 183.578 427.135 191.938 427.135H197.472V439.346C197.472 445.941 202.838 451.307 209.434 451.307H239.636C246.232 451.307 251.598 445.941 251.598 439.346V427.135H257.132C265.492 427.135 272.292 420.339 272.292 411.984V402.406C272.292 398.775 271.005 395.44 268.866 392.828C271.005 390.215 272.292 386.881 272.292 383.25V373.672C272.292 367.352 268.397 361.929 262.882 359.66C264.153 344.066 272.429 329.536 285.573 320.179C313.276 300.454 329.816 268.415 329.816 234.473C329.817 176.473 282.589 129.288 224.536 129.287ZM192.95 267.414C184.122 258.589 179.261 246.854 179.261 234.372C179.261 221.889 184.122 210.155 192.95 201.329L224.536 169.754L256.121 201.329C264.949 210.154 269.811 221.888 269.811 234.371C269.811 246.853 264.949 258.588 256.121 267.413L230.109 293.417V270.405L242.976 257.542C245.153 255.365 245.153 251.837 242.977 249.66C240.801 247.483 237.272 247.482 235.096 249.659L230.109 254.644V248.008L242.976 235.145C245.153 232.969 245.153 229.44 242.977 227.264C240.801 225.086 237.272 225.086 235.096 227.262L230.109 232.247V219.44C230.109 216.362 227.614 213.867 224.536 213.867C221.458 213.867 218.962 216.362 218.962 219.44V239.713L213.975 234.728C211.799 232.552 208.27 232.552 206.094 234.729C203.918 236.906 203.918 240.435 206.096 242.61L218.962 255.473V262.11L213.975 257.125C211.799 254.949 208.27 254.949 206.094 257.126C203.918 259.303 203.918 262.832 206.096 265.008L218.962 277.871V293.417L192.95 267.414ZM240.452 439.343C240.452 439.793 240.087 440.159 239.637 440.159H209.434C208.985 440.159 208.619 439.793 208.619 439.343V427.133H240.452V439.343ZM261.147 383.248C261.147 385.456 259.346 387.253 257.133 387.253H246.829C243.751 387.253 241.255 389.748 241.255 392.826C241.255 395.904 243.751 398.399 246.829 398.399H257.133C259.346 398.399 261.146 400.195 261.146 402.404V411.982C261.146 414.19 259.346 415.986 257.133 415.986H191.939C189.725 415.986 187.924 414.19 187.924 411.982V402.404C187.924 400.196 189.725 398.399 191.939 398.399H224.536C227.614 398.399 230.109 395.904 230.109 392.826C230.109 389.748 227.614 387.253 224.536 387.253H191.939C189.725 387.253 187.924 385.456 187.924 383.248V373.67C187.924 371.462 189.725 369.666 191.939 369.666H257.133C259.346 369.666 261.146 371.462 261.146 373.67V383.248H261.147ZM113.61 163.893L90.5228 150.564C87.8573 149.024 84.4486 149.938 82.9097 152.603C81.3707 155.269 82.284 158.678 84.9495 160.216L108.037 173.546C110.656 175.062 114.095 174.2 115.65 171.506C117.189 168.84 116.276 165.432 113.61 163.893Z" fill="black"/>
</svg>
